<?xml version="1.0" standalone="no"?>
<!DOCTYPE svg PUBLIC "-//W3C//DTD SVG 1.1//EN" "http://www.w3.org/Graphics/SVG/1.1/DTD/svg11.dtd" >
<svg xmlns="http://www.w3.org/2000/svg">
<metadata>Generated by IcoMoon</metadata>
<defs>
<font id="Inventor-POI" horiz-adv-x="1024">
<font-face units-per-em="1024" ascent="960" descent="-64" />
<missing-glyph horiz-adv-x="1024" />
<glyph unicode="&#x20;" horiz-adv-x="512" d="" />
<glyph unicode="&#xe600;" glyph-name="airport" d="M990.294 926.198c-21.844 21.844-50.92 33.802-81.878 33.802s-60.034-12.007-81.781-33.802l-211.638-211.589-452.834 177.209c-10.657 4.099-22.808 1.639-30.957-6.51l-81.829-81.781c-5.883-5.883-8.921-13.984-8.39-22.278 0.482-8.246 4.533-15.961 11.091-21.024l342.362-266.223-149.386-149.337-147.746 36.937c-9.789 2.556-20.252-0.434-27.437-7.619l-61.336-61.336c-5.883-5.883-8.921-13.984-8.439-22.229 0.53-8.294 4.533-15.961 11.091-21.024l181.211-140.995 140.995-181.211c5.063-6.558 12.73-10.56 21.024-11.091 0.627 0 1.206-0.048 1.832-0.048 7.667 0 14.996 2.99 20.445 8.487l61.384 61.336c7.185 7.185 10.078 17.6 7.619 27.485l-36.937 147.746 149.337 149.289 266.223-342.314c5.063-6.558 12.73-10.608 21.024-11.091 8.824-0.627 16.395 2.556 22.278 8.439l81.829 81.829c8.101 8.101 10.657 20.252 6.51 30.957l-177.257 452.834 211.638 211.638c45.037 45.037 45.037 118.428-0.048 163.514z" />
<glyph unicode="&#xe601;" glyph-name="apartment" d="M273.067-64v955.733h136.533v68.267h204.8v-68.267h136.533v-955.733h-477.867zM682.667 789.333h-341.333v-34.133h341.333v34.133zM682.667 686.933h-341.333v-34.133h341.333v34.133zM682.667 584.533h-341.333v-34.133h341.333v34.133zM682.667 482.133h-341.333v-34.133h341.333v34.133zM682.667 379.733h-341.333v-34.133h341.333v34.133zM682.667 277.333h-341.333v-34.133h341.333v34.133zM682.667 174.933h-341.333v-34.133h341.333v34.133zM682.667 72.533h-341.333v-34.133h341.333v34.133z" />
<glyph unicode="&#xe602;" glyph-name="atm" d="M926.421 83.797h-825.344c-55.595 0-101.077 45.483-101.077 101.077v322.603h1027.499v-322.603c0-55.595-45.483-101.077-101.077-101.077zM239.403 298.795h-151.552v-46.379h151.595v46.379zM542.635 298.795h-252.672v-46.379h252.672v46.379zM0 709.589c0 55.637 45.483 101.077 101.077 101.077h825.344c55.595 0 101.077-45.44 101.077-101.077v-66.688h-1027.499v66.688z" />
<glyph unicode="&#xe603;" glyph-name="bank" d="M963.789-48.271h-893.665c-27.32 0-49.644 22.323-49.644 49.644s22.323 49.644 49.644 49.644h893.665c27.32 0 49.644-22.364 49.644-49.644s-22.323-49.644-49.644-49.644zM938.967 587.633h-24.822v-357.048c27.32 0 49.644-22.364 49.644-49.644s-22.364-49.644-49.644-49.644h-794.378c-27.32 0-49.644 22.364-49.644 49.644 0 27.32 22.364 49.644 49.644 49.644v357.048h-24.822c-22.077 0-41.452 14.418-47.677 35.471-6.185 21.135 2.253 43.991 20.644 55.869l421.97 273.080c8.233 5.202 17.654 7.946 27.075 7.946s18.842-2.744 27.075-7.946l422.011-273.080c18.391-11.919 26.829-34.734 20.603-55.869-6.185-21.053-25.6-35.471-47.677-35.471zM467.313 230.584h99.287v357.048h-99.287v-357.048zM343.163 587.633h-99.246v-357.048h99.287v357.048zM516.956 860.713c-41.206 0-74.465-33.26-74.465-74.465s33.26-74.465 74.465-74.465 74.465 33.26 74.465 74.465c0 41.206-33.26 74.465-74.465 74.465zM790.036 587.633h-99.287v-357.048h99.287v357.048z" />
<glyph unicode="&#xe604;" glyph-name="bookcase" d="M978.859 44.715h-936.277c-23.424 0-42.581 19.2-42.581 42.581v212.779h255.36v-85.12h85.12v85.12h340.437v-85.12h85.12v85.12h255.36v-212.779c0-23.381-19.157-42.581-42.539-42.581zM766.080 427.733h-85.12v-85.12h-340.48v85.12h-85.12v-85.12h-255.36v297.941c0 23.381 19.157 42.539 42.581 42.539h255.36v170.24h425.6v-170.24h255.36c23.381 0 42.581-19.157 42.581-42.581v-297.899h-255.36v85.12zM638.379 768.213h-255.317v-85.12h255.317v85.12z" />
<glyph unicode="&#xe605;" glyph-name="bus" d="M783.957 960h-546.176c-95.829 0-173.781-77.995-173.781-173.781v-620.672c0-41.045 33.408-74.496 74.496-74.496 13.696 0 24.832-11.136 24.832-24.832v-49.664c0-41.045 33.408-74.496 74.453-74.496h49.664c41.045 0 74.496 33.408 74.496 74.496v49.664c0 13.696 11.136 24.832 24.832 24.832h248.277c13.696 0 24.832-11.136 24.832-24.832v-49.664c0-41.045 33.408-74.496 74.496-74.496h49.664c41.088 0 74.496 33.408 74.496 74.496v49.664c0 13.696 11.136 24.832 24.832 24.832 41.045 0 74.496 33.408 74.496 74.496v620.672c-0.128 95.787-78.123 173.781-173.909 173.781zM262.613 190.379c-41.088 0-74.496 33.323-74.496 74.496 0 41.131 33.365 74.453 74.496 74.453s74.496-33.323 74.496-74.453c-0.043-41.131-33.365-74.496-74.496-74.496zM759.125 190.379c-41.131 0-74.496 33.323-74.496 74.496 0 41.131 33.365 74.453 74.496 74.453s74.496-33.323 74.496-74.453c0-41.131-33.365-74.496-74.496-74.496zM858.411 488.277h-695.083v297.941c0 40.96 33.493 74.496 74.453 74.496h99.285c0-27.435 22.229-49.664 49.664-49.664h248.277c27.435 0 49.664 22.229 49.664 49.664h99.285c40.96 0 74.496-33.493 74.496-74.496v-297.941z" />
<glyph unicode="&#xe606;" glyph-name="camera" d="M924.459 51.968h-837.803c-47.787 0-86.656 38.912-86.656 86.699v520.021c0 47.787 38.869 86.656 86.656 86.656h28.885c0 47.787 38.869 86.656 86.656 86.656h86.656c47.787 0 86.656-38.869 86.656-86.656h548.907c47.787 0 86.656-38.869 86.656-86.656v-520.021c0.043-47.787-38.827-86.699-86.613-86.699zM346.667 571.989c0 15.872-13.013 28.885-28.885 28.885h-144.469c-15.915 0-28.885-13.013-28.885-28.885v-57.771c0-15.872 13.013-28.885 28.885-28.885h144.427c15.872 0 28.885 13.013 28.885 28.885v57.771zM664.448 600.875c-111.787 0-202.24-90.411-202.24-202.24 0-111.787 90.453-202.197 202.24-202.197 111.829 0 202.24 90.411 202.24 202.197-0.043 111.829-90.453 202.24-202.24 202.24zM664.448 283.093c-63.829 0-115.541 51.712-115.541 115.541 0 63.872 51.712 115.541 115.541 115.541 63.872 0 115.541-51.712 115.541-115.541s-51.712-115.541-115.541-115.541z" />
<glyph unicode="&#xe607;" glyph-name="camping" d="M1012.382 38.951h-404.953l-101.258 379.668-101.258-379.668h-404.913l506.21 822.587 506.171-822.587z" />
<glyph unicode="&#xe608;" glyph-name="car-service" horiz-adv-x="1022" d="M1005.952 808.51c-9.984 4.080-21.456 1.728-28.992-5.904l-102.242-103.394-97.442 14.016-14.064 98.306 103.394 102.962c7.632 7.632 9.936 19.056 5.808 28.992-4.176 9.984-13.872 16.512-24.624 16.512h-150.482c-7.008 0-13.776-2.784-18.768-7.776l-169.299-168.819c-6.624-6.576-9.312-16.176-7.008-25.296l33.793-134.978-494.6-457.927c-0.864-0.672-1.68-1.392-2.448-2.16-51.841-51.841-51.841-136.226 0-188.067 25.104-25.104 58.561-38.977 94.081-38.977s68.977 13.872 94.033 38.977c1.056 1.056 2.016 2.208 2.88 3.408l456.823 493.64 134.594-33.793c9.024-2.304 18.72 0.384 25.344 7.056l168.051 169.299c4.848 5.040 7.632 11.76 7.632 18.768v150.53c0 10.8-6.528 20.496-16.464 24.624z" />
<glyph unicode="&#xe609;" glyph-name="car" d="M1010.36 597.832h-106.373v-5.857l-41.206 137.462c-18.35 61.44-80.814 107.684-144.916 107.684h-425.37c-64.061 0-126.566-46.244-144.916-107.93l-41.206-137.216v5.857h-106.373v-53.166l81.347-40.714c-1.065-3.932-1.556-8.192-1.556-12.452v-372.244c0-29.245 23.921-53.166 53.166-53.166h53.166c29.245 0 53.166 23.921 53.166 53.166v79.79h531.743v-79.79c0-29.245 23.921-53.166 53.166-53.166h53.166c29.245 0 53.166 23.921 53.166 53.166v372.244c0 4.342-0.696 8.479-1.679 12.452l81.428 40.714v53.166zM239.288 305.377c-2.376 0-5.079 0-7.455 0.532-20.48 1.638-38.83 11.469-51.855 26.051-12.78 14.090-20.48 32.727-20.48 53.166 0 12.493 2.949 24.453 7.946 34.816 13.025 26.583 40.141 44.933 71.803 44.933 34.816 0 64.348-22.077 74.998-53.166 3.195-8.233 4.792-17.285 4.792-26.583 0.041-44.155-35.594-79.749-79.749-79.749zM794.46 322.908c-13.558-10.895-31.089-17.572-49.971-17.572-44.155 0-79.749 35.635-79.749 79.749 0 9.298 1.597 18.35 4.751 26.583 10.65 31.089 40.182 53.166 74.998 53.166 34.038 0 63.037-21.258 74.424-51.282 3.441-8.765 5.325-18.35 5.325-28.467 0-25.231-11.715-47.555-29.778-62.177zM175.227 544.666l48.906 161.669c8.274 28.18 39.117 51.036 68.321 51.036h53.166c0-29.368 23.798-53.166 53.166-53.166h186.122c29.368 0 53.166 23.839 53.166 53.166h79.749c29.245 0 60.088-22.897 68.321-51.036l48.906-161.669h-659.825z" />
<glyph unicode="&#xe60a;" glyph-name="cart" d="M981.402 784.609h-57.016l-115.753-463.094c-5.202-20.767-23.88-35.389-45.343-35.389h-654.254c-22.856 0-42.353 16.548-46.080 39.035l-62.3 373.842c-2.294 13.599 1.516 27.443 10.445 37.929 8.888 10.445 21.914 16.507 35.635 16.507h654.254c3.236 0 6.39-0.328 9.421-0.983 28.631-4.547 45.875-29.573 38.871-59.72l-65.454-283.566c-2.499-10.772-7.946-20.767-15.114-29.573h58.081l115.794 463.094c5.202 20.808 23.88 35.389 45.343 35.389h93.471c25.764 0 46.735-20.931 46.735-46.735s-20.972-46.735-46.735-46.735zM202.506 223.826c51.61 0 93.471-41.861 93.471-93.471s-41.861-93.471-93.471-93.471-93.471 41.861-93.471 93.471c0 51.61 41.861 93.471 93.471 93.471zM607.519 223.826c51.61 0 93.471-41.861 93.471-93.471s-41.861-93.471-93.471-93.471-93.471 41.861-93.471 93.471c0 51.61 41.861 93.471 93.471 93.471z" />
<glyph unicode="&#xe60b;" glyph-name="casino" d="M895.014 817.892c-10.923 17.711-28.369 30.189-48.659 34.626l-122.842 28.407c-14.298 19.532-37.205 32.237-63.223 32.237h-76.497l-193.65 44.753c-5.689 1.289-11.681 2.086-17.673 2.086-31.516 0-59.354-18.773-71.566-46.876h-109.037c-43.198 0-78.089-35.119-78.089-78.052v-780.705c0-43.198 34.892-78.089 78.089-78.089h285.734l158.227-36.409c5.727-1.593 11.719-2.086 17.446-2.086 36.674 0 67.925 24.993 76.269 60.34l175.369 760.946c4.665 20.328 1.289 41.15-9.899 58.823zM253.535 713.292c-12.743 10.126-23.438 22.907-31.516 37.471-2.844 5.992-4.172 11.985-4.172 18.204 0 22.111 17.977 40.088 39.822 40.088 5.992 0 11.947-1.289 17.18-3.641 5.727-2.882 10.961-7.054 14.829-12.212 3.148 4.172 6.751 7.547 11.188 10.164 5.992 3.641 13.009 5.689 20.556 5.689 2.617 0 5.234-0.265 7.547-0.759 18.47-3.413 32.503-19.797 32.503-39.329 0-6.22-1.555-12.212-4.399-17.939-12.174-22.642-30.91-40.884-53.589-52.3-3.906-2.086-8.040-3.944-12.212-5.461-0.531-0.303-1.062-0.303-1.555-0.303s-1.289 0-1.82 0.265c-3.906 1.555-7.547 3.11-11.15 4.93-8.382 4.21-16.194 9.102-23.211 15.132zM530.432 196.437c12.743 0 24.462-5.992 32.009-15.853 7.282 9.899 18.963 15.853 31.744 15.853 22.111 0 40.088-17.939 40.088-40.088 0-6.258-1.555-12.478-4.437-17.939-14.298-26.586-37.736-47.142-65.839-57.761-0.531-0.265-1.024-0.265-1.555-0.265-0.796 0-1.327 0-1.82 0.265-28.103 10.657-51.541 31.213-65.839 57.534-2.882 5.727-4.437 11.947-4.437 18.204 0 22.111 17.977 40.050 40.088 40.050zM436.489 329.178c-1.024-0.228-2.086-0.531-3.11-0.531-1.062 0-2.086 0.265-3.148 0.531-53.362 20.29-97.583 59.089-124.89 109.303-5.461 10.923-8.078 22.376-8.078 34.588 0 41.643 33.83 75.738 75.738 75.738 24.197 0 46.345-11.15 60.378-30.189 14.298 19.001 36.409 30.189 60.644 30.189 41.643 0 75.738-34.057 75.738-75.738 0-12.212-2.882-23.666-8.344-34.323-27.345-50.517-71.566-89.278-124.928-109.568zM738.342 824.149l96.559-22.111c13.805-3.375 22.642-17.446 19.266-31.251l-115.826-502.519v555.88z" />
<glyph unicode="&#xe60c;" glyph-name="castle" d="M877.714 521.143v-73.143h-73.143v73.143h-146.286v-73.143h-73.143v512h-146.286v-219.429l-146.286 73.143-146.286-73.143v219.429h-146.286v-1024h182.834v255.977c0 60.728 49.010 109.738 109.738 109.738s109.691-49.010 109.691-109.738v-255.977h621.738v585.143h-146.286zM365.714 448h-146.286v146.286c0 40.222 32.921 73.143 73.143 73.143s73.143-32.921 73.143-73.143v-146.286zM877.714 82.286h-146.286v146.286c0 40.222 32.921 73.143 73.143 73.143s73.143-32.921 73.143-73.143v-146.286z" />
<glyph unicode="&#xe60d;" glyph-name="cemetery" d="M1028.020 275.096h-114.233v-228.466h-114.233v228.466h-114.233v114.233h114.233v114.195h114.233v-114.233h114.233v-114.195zM571.127 389.329h-114.233v228.428h-114.195v114.233h114.233v114.233h114.233v-114.233h114.233v-114.233h-114.233v-228.428zM342.699 275.096h-114.233v-228.466h-114.233v228.466h-114.233v114.233h114.233v114.195h114.233v-114.233h114.233v-114.195z" />
<glyph unicode="&#xe60e;" glyph-name="church" d="M756.292 400.145l-114.586 61.986v184.593c0 12.288-6.042 30.447-13.449 40.277l-98.441 131.345v52.122h44.783v44.749h-44.783v44.783h-44.749v-44.783h-44.749v-44.749h44.749v-52.122l-98.441-131.379c-7.407-9.796-13.449-27.955-13.449-40.243v-184.593l-114.551-61.986c-10.752-6.076-19.695-20.821-19.695-33.143v-391.612c0-12.288 10.069-22.357 22.357-22.357h492.305c12.288 0 22.357 10.069 22.357 22.357v391.612c0 12.322-8.943 27.068-19.661 33.143zM507.46 713.865c24.61 0 44.749-20.139 44.749-44.749s-20.139-44.749-44.749-44.749-44.749 20.139-44.749 44.749c0 24.576 20.139 44.749 44.749 44.749zM507.46 534.835c15.667 0 29.525-8.055 37.615-20.378 4.471-7.168 7.134-15.428 7.134-24.371v-89.532h-89.498v89.532c0 8.977 2.697 17.203 7.134 24.371 8.055 12.322 21.948 20.378 37.615 20.378zM574.566-2.185h-134.246v201.387c0 37.137 29.969 67.14 67.14 67.14s67.14-29.969 67.14-67.14v-201.387z" />
<glyph unicode="&#xe60f;" glyph-name="cinema" d="M1003.069 648.786c15.77 0 28.672 12.902 28.672 28.672v171.95c0 15.77-12.902 28.672-28.672 28.672h-974.397c-15.77 0-28.672-12.902-28.672-28.672v-171.95c0-15.77 12.902-28.672 28.672-28.672h57.303v-401.203h-57.303c-15.77 0-28.672-12.902-28.672-28.672v-171.95c0-15.77 12.902-28.672 28.672-28.672h974.397c15.77 0 28.672 12.902 28.672 28.672v171.95c0 15.77-12.902 28.672-28.672 28.672h-57.303v401.203h57.303zM85.975 104.264v57.303c0 15.77 12.902 28.672 28.672 28.672h57.303c15.729 0 28.631-12.902 28.631-28.672v-57.303c0-15.77-12.902-28.672-28.631-28.672h-57.303c-15.77 0.041-28.672 12.943-28.672 28.672zM85.975 734.761v57.344c0 15.77 12.902 28.672 28.672 28.672h57.303c15.729 0 28.631-12.902 28.631-28.672v-57.303c0-15.77-12.902-28.672-28.631-28.672h-57.303c-15.77 0-28.672 12.902-28.672 28.631zM917.094 792.105v-57.303c0-15.77-12.902-28.672-28.672-28.672h-57.303c-15.77 0-28.672 12.902-28.672 28.672v57.303c0 15.77 12.902 28.672 28.672 28.672h57.303c15.77 0 28.672-12.902 28.672-28.672zM831.119 620.155v-343.9c0-15.77-12.902-28.672-28.672-28.672h-573.194c-15.77 0-28.672 12.902-28.672 28.672v343.9c0 15.77 12.902 28.672 28.672 28.672h573.194c15.77-0.041 28.672-12.943 28.672-28.672zM687.8 792.105v-57.303c0-15.77-12.902-28.672-28.672-28.672h-57.303c-15.77 0-28.672 12.902-28.672 28.672v57.303c0 15.77 12.902 28.672 28.672 28.672h57.303c15.811 0 28.672-12.902 28.672-28.672zM458.547 792.105v-57.303c0-15.77-12.902-28.672-28.672-28.672h-57.303c-15.77 0-28.672 12.902-28.672 28.672v57.303c0 15.77 12.902 28.672 28.672 28.672h57.303c15.77 0 28.672-12.902 28.672-28.672zM343.9 104.264v57.303c0 15.77 12.902 28.672 28.672 28.672h57.303c15.77 0 28.672-12.902 28.672-28.672v-57.303c0-15.77-12.902-28.672-28.672-28.672h-57.303c-15.77 0.041-28.672 12.943-28.672 28.672zM573.194 104.264v57.303c0 15.77 12.902 28.672 28.672 28.672h57.303c15.77 0 28.672-12.902 28.672-28.672v-57.303c0-15.77-12.902-28.672-28.672-28.672h-57.303c-15.77 0.041-28.672 12.943-28.672 28.672zM802.447 104.264v57.303c0 15.77 12.902 28.672 28.672 28.672h57.303c15.77 0 28.672-12.902 28.672-28.672v-57.303c0-15.77-12.902-28.672-28.672-28.672h-57.303c-15.77 0.041-28.672 12.943-28.672 28.672z" />
<glyph unicode="&#xe610;" glyph-name="clock" d="M512.020-64c-282.315 0-512.020 229.665-512.020 511.98s229.706 512.020 512.020 512.020 512.020-229.706 512.020-512.020-229.706-511.98-512.020-511.98zM512.020 784.476c-185.522 0-336.455-150.933-336.455-336.455s150.933-336.455 336.455-336.455c185.522 0 336.455 150.974 336.455 336.455s-150.974 336.455-336.455 336.455zM629.050 287.895c-11.167 0-22.374 4.233-30.92 12.739l-117.030 116.223c-8.305 8.264-12.981 19.431-12.981 31.122v177.137c0 24.228 19.673 43.901 43.901 43.901s43.861-19.673 43.861-43.901v-158.875l104.049-103.323c17.214-17.093 17.335-44.869 0.242-62.083-8.546-8.627-19.874-12.941-31.122-12.941z" />
<glyph unicode="&#xe611;" glyph-name="cocktail" d="M969.767 939.599c-11.028 19.417-35.84 26.151-54.981 15.084l-188.613-107.756c-11.579-6.459-18.865-18.038-20.204-30.956l-5.356-54.469c-37.179 6.735-76.524 9.964-116.106 9.964-14.297 0-28.83-0.551-43.087-1.339-43.126 80.817-128.551 136.074-226.343 136.074-141.233 0-256-114.767-256-255.961 0-138.476 110.474-251.668 247.887-255.685l48.482-340.283c3.23-77.588 116.933-118.036 229.022-118.036s225.753 40.409 228.982 118.036l78.415 548.549c0.827 3.781 1.063 7.838 1.339 11.579 0.236 0.827 0.236 1.654 0.551 2.442 0.276 2.166 0.551 4.332 0.551 6.498 0 2.993-0.276 5.671-0.827 8.35-4.844 49.034-49.822 85.701-113.703 108.859l4.569 46.631 170.299 97.556c19.417 10.949 26.151 35.761 15.124 54.863zM584.468 690.649c41.472 0 77.588-3.742 108.032-9.689l-11.855-117.445c-28.002-4.569-60.377-7.562-96.177-7.562-10.791 0-21.031 0.276-30.996 0.827 11.303 29.066 17.526 60.574 17.526 93.46 0 13.745-1.063 26.939-3.23 40.172 5.396 0.236 11.028 0.236 16.699 0.236zM139.894 650.24c0 96.453 78.69 175.143 175.143 175.143 55.808 0 105.354-26.151 137.413-67.111 17.25-21.543 29.381-47.419 34.737-75.461 1.89-10.516 2.993-21.543 2.993-32.61 0-29.932-7.562-58.21-21.031-82.983-66.009 13.745-105.866 37.494-112.876 53.090l-0.551 4.332-0.512 4.293c-3.23 21.031-21.307 36.391-43.126 34.777-20.992-1.615-37.455-19.141-37.455-40.409 0-2.166 0.236-4.332 0.512-6.498 0.315-0.788 0.315-1.575 0.551-2.402 0.236-3.742 0.512-7.798 1.339-11.579l18.038-126.622c-87.276 9.964-155.175 84.283-155.175 174.041zM803.525 449.772l-4.844-34.462c-4.884-3.23-10.516-6.223-16.699-9.452-41.748-20.48-110.434-36.943-197.474-36.943-85.977 0-154.112 16.187-195.86 36.116-0.551 0.276-1.063 0.512-1.654 0.788-6.183 3.23-11.855 6.223-16.699 9.452l-3.505 25.6-1.339 8.901-4.569 31.547-5.908 42.299c15.911-8.35 33.674-15.636 52.815-21.819 15.911-5.12 32.847-9.137 50.373-12.682 16.187-3.505 32.61-5.908 49.31-7.798 25.6-3.23 51.712-4.608 77.076-4.608 81.093 0 170.535 15.084 229.534 46.868l-10.555-73.807zM813.214 624.64l-0.551-4.332c-4.293-9.413-20.716-22.095-48.482-33.674l6.971 70.065c26.427-12.13 40.724-24.537 42.063-32.059z" />
<glyph unicode="&#xe612;" glyph-name="coffee" d="M1036.581 581.51c0-100.888-82.066-182.906-182.906-182.906h-8.143c-27.307-104.838-122.734-173.934-235.813-173.934h-304.859c-134.144 0-243.907 100.742-243.907 234.886v402.92h795.112l-2.438-98.060c100.888 0 182.955-82.018 182.955-182.906zM853.626 642.462v-121.905c33.548 0 60.952 27.404 60.952 60.952 0.049 33.548-27.404 60.952-60.952 60.952zM670.72 136.753h243.907c0-67.389-54.565-103.96-121.954-103.96h-670.72c-67.34-0.049-121.954 36.571-121.954 103.96h670.72z" />
<glyph unicode="&#xe613;" glyph-name="cog-wheel" d="M938.648 561.795h-46.588c-7.195 21.226-17.448 49.107-30.219 74.245l32.333 32.018c33.232 33.232 33.232 87.241 0 120.518l-40.248 40.203c-32.198 32.063-88.455 32.063-120.698-0.090l-32.108-32.153c-24.059 12.996-49.242 23.429-75.324 31.209v45.374c0 47.083-39.123 86.881-85.352 86.881h-56.886c-46.229 0-85.352-39.798-85.352-86.881v-45.374c-26.037-7.78-51.265-18.213-75.324-31.254l-32.153 32.153c-32.153 32.108-88.455 32.108-120.653-0.045l-40.248-40.248c-33.277-33.277-33.277-87.376 0.18-120.833l32.108-31.569c-12.771-25.138-23.024-53.019-30.175-74.155h-46.633c-46.229 0-85.307-39.798-85.307-86.926v-56.886c0-46.184 38.269-83.778 85.307-83.778h46.588c7.6-22.755 17.763-50.905 30.399-75.908l-32.468-32.738c-33.322-33.322-33.322-87.511 0-120.878l40.293-40.338c32.153-32.063 88.455-32.108 120.653 0l32.108 32.063c24.014-13.041 49.242-23.474 75.369-31.299v-45.329c0-46.184 38.269-83.778 85.307-83.778h56.886c47.038 0 85.307 37.55 85.307 83.778v45.329c26.127 7.78 51.355 18.258 75.369 31.254l32.108-32.153c32.153-32.108 88.5-32.108 120.698 0l40.248 40.248c33.277 33.277 33.277 87.376 0.135 120.518l-32.648 33.187c12.546 24.868 22.71 52.929 30.444 75.998h46.543c47.038 0 85.352 37.594 85.352 83.778v56.886c0 47.173-39.078 86.971-85.352 86.971zM682.682 446.449c0-94.121-76.583-170.659-170.659-170.659s-170.704 76.538-170.704 170.659 76.538 170.659 170.659 170.659 170.704-76.538 170.704-170.659z" />
<glyph unicode="&#xe614;" glyph-name="coins" d="M760.692 634.461c-6.097 1.024-12.195 1.815-18.246 2.048 27.369 23.319 43.613 51.712 43.613 84.666v50.735c-0.047 108.311-172.218 164.817-342.342 164.817s-342.295-56.506-342.295-164.817v-38.772c-60.835-27.369-101.423-67.724-101.423-120.227v-50.688c0-53.993 42.589-94.86 105.984-122.461-3.025-9.402-4.561-19.27-4.561-29.696v-25.321c-49.199-21.83-84.666-52.224-96.861-90.252-3.025-9.402-4.561-19.27-4.561-29.696v-50.688c0-108.265 172.172-164.817 342.295-164.817 50.223 0 100.678 5.073 146.804 14.708 23.831-21.551 50.688-39.564 80.151-53.481 42.589-20.015 90.484-31.465 140.707-31.465 182.039 0 329.635 147.596 329.635 329.635 0 164.771-120.925 301.428-278.9 325.772zM177.478 771.91c0 30.161 94.068 88.762 266.24 88.762s266.24-58.554 266.24-88.762c0-16.71-29.417-42.589-85.225-61.859-34.956-12.195-80.105-21.783-134.842-25.088-14.708-1.257-30.161-1.815-46.173-1.815-58.321 0-107.753 6.842-147.549 16.756-63.162 15.965-102.214 40.588-114.641 59.857-2.513 4.329-4.049 8.611-4.049 12.148zM76.055 612.911c0 12.66 16.244 29.929 47.197 45.894 36.492-47.663 114.595-79.081 204.102-93.277 37.516-6.097 76.8-9.123 116.364-9.123h2.793c16.244 0 32.442 0.791 48.407 2.001-7.82-6.796-15.453-13.684-22.295-21.271-12.148-2.56-25.367-5.073-39.052-6.842-27.369-3.817-57.809-6.097-91.276-6.097-48.175 0-90.252 4.561-125.766 11.916-91.508 18.525-140.474 55.017-140.474 76.8zM342.295 397.405c16.989 0 33.978 0.512 50.967 1.815-5.818-19.782-9.635-40.308-11.45-61.114-0.465-4.329-0.977-8.611-0.977-12.94v-0.745c-48.175 4.049-88.25 13.172-119.668 24.297-27.369 9.635-48.175 20.806-62.092 31.465-14.196 10.892-21.551 21.551-21.551 29.929 0 2.048 0.233 3.817 0.977 6.097 50.455-12.474 107.241-18.804 163.793-18.804zM342.295 176.035c-172.172 0-266.24 58.601-266.24 88.762 0 2.001 0.233 3.817 1.024 6.097 3.817 10.659 17.222 23.599 39.564 35.98 40.588-66.42 158.767-103.936 283.741-111.057 2.048-5.585 4.049-11.404 6.609-16.756-20.061-2.001-41.612-3.025-64.698-3.025zM709.958 80.477c-33.466 0-67.165 7.587-97.327 21.83-2.281 0.977-4.561 2.001-6.609 3.258-27.648 13.964-51.991 33.466-71.54 57.065l-0.233 0.745-4.841 5.865c-6.842 8.844-13.172 18.246-18.479 28.113-0.512 0.233-0.512 0.512-0.791 1.024-9.868 17.734-17.501 37.004-22.295 57.809-1.536 6.842-2.839 12.94-3.584 18.758v1.257c-1.769 11.171-2.513 22.063-2.513 32.489v3.305c0 2.281 0.233 5.073 0.233 7.354l0.233 3.025v1.024l0.279 3.025 0.233 1.769 0.233 1.536c0.233 2.793 0.512 5.585 0.791 8.378 1.769 13.684 4.561 26.857 8.611 39.564l1.024 2.513c1.769 6.33 4.282 12.66 7.354 20.061 1.815 3.537 3.305 7.075 5.306 10.659 0.791 1.769 1.815 3.817 3.072 5.818 0 0.512 0.465 1.257 0.745 1.815l0.745 1.257c1.536 2.793 3.025 5.585 4.841 8.378l1.257 1.815 1.257 1.769c13.452 21.039 30.441 40.076 50.223 55.529 3.305 2.793 6.842 5.306 10.426 7.82 17.222 12.428 35.98 22.063 55.761 28.951l0.791 0.233h0.512c13.172 4.561 26.624 8.099 40.588 9.868 1.257-0.465 2.513-0.977 3.817-1.489 0.233 0.791 0.512 1.489 0.512 2.281 9.635 1.536 19.549 2.001 29.417 2.001 12.195 0 24.111-0.977 35.235-2.513 110.080-16.989 192.977-114.083 192.977-225.652-0.047-125.859-102.493-228.305-228.259-228.305z" />
<glyph unicode="&#xe615;" glyph-name="compass" d="M1007.884 426.571l-145.589-41.574c-26.196-145.91-141.351-261.032-287.261-287.261l-41.574-145.589c-2.729-9.567-11.461-16.148-21.413-16.148s-18.684 6.581-21.413 16.148l-41.574 145.589c-145.91 26.228-261.064 141.351-287.261 287.261l-145.589 41.574c-9.631 2.761-16.212 11.493-16.212 21.413s6.581 18.684 16.148 21.413l145.589 41.574c26.196 145.91 141.351 261.032 287.261 287.261l41.574 145.589c2.761 9.599 11.493 16.18 21.445 16.18s18.684-6.581 21.413-16.148l41.574-145.589c145.91-26.196 261.064-141.351 287.261-287.261l145.589-41.574c9.567-2.729 16.148-11.461 16.148-21.413s-6.581-18.684-16.116-21.445zM512.016 696.046c-137.017 0-248.062-111.045-248.062-248.062s111.045-248.062 248.062-248.062 248.062 111.045 248.062 248.062-111.078 248.062-248.062 248.062zM575.87 414.693c-0.225-0.385-0.642-0.578-0.899-0.963-0.899-1.38-2.087-2.376-3.275-3.499-1.316-1.284-2.536-2.568-4.109-3.467-0.417-0.257-0.674-0.706-1.092-0.899l-178.077-89.055c-3.178-1.573-6.581-2.344-9.952-2.344-6.356 0-12.585 2.729-16.918 7.801-6.645 7.769-7.159 19.069-1.188 27.416l111.334 155.83c1.701 2.376 3.949 4.206 6.356 5.746 0.257 0.161 0.417 0.514 0.674 0.642l155.83 89.055c8.7 5.008 19.679 3.499 26.774-3.596s8.572-18.042 3.596-26.774l-89.055-155.894zM492.594 458.193l-43.949-61.51 70.274 35.153-26.325 26.357z" />
<glyph unicode="&#xe616;" glyph-name="computer-screen" d="M941.419 827.871h-867.097c-40.894 0-74.323-33.429-74.323-74.323v-520.258c0-40.894 33.429-74.323 74.323-74.323h306.87l-31.711-63.224c-3.865-7.663-3.435-16.813 1.057-24.114s12.486-11.759 21.075-11.759h272.516c8.588 0 16.549 4.459 21.108 11.759 4.492 7.3 4.889 16.45 1.057 24.114l-31.81 63.191h306.936c40.894 0 74.323 33.429 74.323 74.323v520.291c0 40.894-33.429 74.323-74.323 74.323zM916.645 728.774v-470.71h-817.548v470.71h817.548z" />
<glyph unicode="&#xe617;" glyph-name="condominium" d="M998.633-27.462h-413.231c-18.944 0-34.444 15.5-34.444 34.444v895.302c0 18.944 15.5 34.444 34.444 34.444h413.231c18.944 0 34.444-15.5 34.444-34.444v-895.348c-0.047-18.897-15.546-34.397-34.444-34.397zM929.745 833.396h-275.456v-68.841h275.456v68.841zM929.745 695.668h-275.456v-68.887h275.456v68.887zM929.745 557.94h-275.456v-68.841h275.456v68.841zM929.745 420.166h-275.456v-68.841h275.456v68.841zM929.745 282.438h-275.456v-68.887h275.456v68.887zM929.745 144.71h-275.456v-68.841h275.456v68.841zM447.674-27.462h-413.231c-18.944 0-34.444 15.5-34.444 34.444v757.574c0 18.944 15.5 34.444 34.444 34.444h413.231c18.944 0 34.444-15.5 34.444-34.444v-757.574c-0.047-18.944-15.546-34.444-34.444-34.444zM206.569 695.668h-103.284v-68.887h103.284v68.887zM206.569 557.94h-103.284v-68.841h103.284v68.841zM206.569 420.166h-103.284v-68.841h103.284v68.841zM206.569 282.438h-103.284v-68.887h103.284v68.887zM206.569 144.71h-103.284v-68.841h103.284v68.841zM378.787 695.668h-103.331v-68.887h103.284v68.887zM378.787 557.94h-103.331v-68.841h103.284v68.841zM378.787 420.166h-103.331v-68.841h103.284v68.841zM378.787 282.438h-103.331v-68.887h103.284v68.887zM378.787 144.71h-103.331v-68.841h103.284v68.841z" />
<glyph unicode="&#xe618;" glyph-name="cottage" d="M958.382 310.456l-104.735 104.776h-676.291l-104.776-104.776-72.581 72.622 515.482 515.482 205.414-205.373v64.307h136.929v-201.236l173.22-173.22-72.663-72.581zM515.482 753.357l-98.509-98.55h197.1l-98.591 98.55zM716.718 552.12h-402.432l-34.243-34.202h470.917l-34.243 34.202zM310.108 278.303h-136.888v102.687h136.929v-102.687zM583.967 380.989v-102.687h-136.929v102.687h136.929zM857.784 380.989v-102.687h-136.888v102.687h136.888zM857.784 141.373h-684.564v102.687h684.605v-102.687zM857.784 4.485h-684.564v102.687h684.605v-102.687z" />
<glyph unicode="&#xe619;" glyph-name="divider" d="M721.127 432.145l9.051 8.225-57.873 63.818-9.051-8.192c-12.321-11.132-25.798-20.975-40.266-29.333l-34.948 124.862-13.246-6.606c-17.342-8.654-35.84-13.841-55.032-15.426l-10.934-0.859 7.73 27.681c19.885 1.586 39.044 7.763 55.924 18.102 37.459 23.123 59.821 63.092 59.821 106.925 0 58.17-39.275 107.454-93.911 121.427l11.594 19.291v97.941h-86.214v-97.941l11.561-19.291c-54.635-13.973-93.944-63.29-93.944-121.427 0-40.828 19.357-78.22 52.224-101.805l-43.272-154.228c-15.393 8.621-29.663 18.894-42.645 30.687l-9.051 8.225-57.873-63.851 9.051-8.225c22.99-20.876 48.789-38.284 76.8-51.695l-79.377-283.483 2.742-149.966 79.31 125.192 79.377 281.765c38.152-6.871 78.121-6.673 116.174 0.495l78.253-279.023 80.797-128.429 2.709 149.966-79.806 284.672c26.789 13.081 51.729 30.026 74.323 50.506zM506.847 760.584c21.636 0 39.242-17.606 39.242-39.242s-17.606-39.242-39.242-39.242c-21.636 0-39.242 17.606-39.242 39.242 0.033 21.669 17.606 39.242 39.242 39.242zM541.498 437.925c-23.023-3.634-46.476-3.733-69.335-0.462l34.684 124.135 34.651-123.673z" />
<glyph unicode="&#xe61a;" glyph-name="entertainment" d="M734.739 42.875c-65.953 0-126.862 56.889-176.393 135.547 16.081 28.444 30.455 58.254 42.818 88.709-1.327-7.699-2.010-15.398-2.010-23.438h66.939c0 36.826 30.113 66.939 66.939 66.939s66.939-30.113 66.939-66.939h66.939c0 73.993-59.923 133.879-133.879 133.879-47.18 0-88.709-24.424-112.45-61.592 20.404 56.548 35.119 112.792 43.501 161.982 0.341 2.655 1.024 5.348 1.365 8.040 0 0.303 0 0.645 0.341 0.986 4.703 29.127 7.054 55.561 7.054 77.976 0 91.401-37.85 175.066-99.745 237.682 46.801 27.496 102.021 43.577 161.64 43.577 167.367 0 302.914-125.838 302.914-281.183s-135.585-522.164-302.914-522.164zM866.911 578.427c-55.22 0-100.428-45.17-100.428-100.39h66.939c0 18.394 15.057 33.451 33.489 33.451s33.451-15.057 33.451-33.451h66.939c0.038 55.22-45.17 100.39-100.39 100.39zM592.479 647.718c1.327-4.361 2.655-8.685 3.982-13.047 1.024-3.717 2.010-7.054 2.693-10.733 0.683-2.010 1.024-4.361 1.327-6.334 1.024-4.361 1.669-8.685 2.351-13.084 1.327-8.685 2.351-17.37 2.655-26.434 0.341-4.361 0.341-8.685 0.341-13.047 0-6.334-0.341-13.388-0.683-20.404-5.006-78.014-36.826-194.484-86.357-295.557-54.879-112.83-131.565-206.203-215.912-206.203-167.329 0-302.876 366.857-302.876 522.164s135.547 281.183 302.914 281.183c84.689 0 161.033-32.123 215.912-84.006 6.334-6.030 12.402-12.060 18.091-18.773 0.341-0.341 0.683-0.683 0.986-0.986 5.385-6.030 10.354-12.060 15.057-18.773 0.683-0.683 1.327-1.669 2.010-2.655 4.361-5.689 8.382-11.719 12.060-18.091 3.337-5.348 6.675-11.036 9.368-17.067 6.675-12.023 12.060-25.107 16.081-38.153zM200.818 544.977c0-18.394-15.057-33.451-33.489-33.451s-33.451 15.057-33.451 33.451h-66.939c0-55.22 45.17-100.39 100.39-100.39s100.428 45.17 100.428 100.39h-66.939zM301.246 277.182c-36.826 0-66.939 30.113-66.939 66.977h-66.939c0-73.993 59.923-133.916 133.879-133.916 73.993 0 133.879 59.923 133.879 133.916h-66.939c0-36.826-30.113-66.977-66.939-66.977zM468.613 544.977c0-18.091-14.715-33.147-32.806-33.451-0.341 0-0.341 0-0.683 0-18.394 0-33.451 15.057-33.451 33.451h-66.939c0-55.22 45.17-100.39 100.39-100.39 4.703 0 9.026 0.341 13.388 0.986 24.462 3.337 45.852 15.057 61.25 32.465 16.043 17.711 25.79 41.491 25.79 66.939h-66.939z" />
<glyph unicode="&#xe61b;" glyph-name="exchange" d="M950.955 444.689l-17.203-28.194-30.106-48.981-66.389 40.619-106.325 65.229 103.868 24.849c-25.566 159.095-163.84 280.883-330.103 280.883-168.175 0-307.678-124.689-331.093-286.652h-96.256c23.927 214.528 206.677 382.225 427.383 382.225 211.183 0 387.209-153.122 423.049-354.031l81.92 19.593-58.743-95.539zM529.237 497.664c49.971-16.452 118.409-38.946 118.409-118.579 0-54.989-33.212-91.716-90.112-104.004v-30.652c0-21.333-17.271-38.605-38.639-38.605-21.333 0-38.605 17.271-38.605 38.605v29.013c-48.094 8.738-84.378 35.328-100.864 62.020-3.789 6.042-5.837 13.278-5.837 20.343 0 21.504 17.306 39.049 38.571 39.049 16.111 0 25.088-9.045 30.481-14.473 22.221-22.187 45.227-33.007 70.383-33.007 52.599 0 52.599 21.436 52.599 31.744 0 20.617-24.030 29.594-63.215 42.564-50.688 16.759-113.766 37.581-113.766 112.606 0 40.755 24.781 87.415 91.648 98.884v36.045c0 21.333 17.271 38.605 38.605 38.605s38.639-17.271 38.639-38.605v-38.571c33.041-7.68 60.587-23.723 76.117-45.841 4.779-7.134 7.168-14.95 7.168-22.903 0-21.299-17.51-38.571-39.049-38.571-9.762 0-19.456 4.608-29.662 14.131-11.162 10.82-32.461 22.221-59.051 22.221-26.965 0-42.394-9.25-42.394-25.429 0.034-16.179 22.153-24.644 58.573-36.591zM105.813 426.325l172.954-105.813-76.425-18.398c53.487-113.22 168.858-191.829 302.387-191.829 133.291 0 248.422 78.336 302.182 191.113h103.185c-59.255-166.741-218.556-286.652-405.367-286.652-178.449 0-332.049 109.397-396.766 264.67l-107.964-25.805 105.813 172.715z" />
<glyph unicode="&#xe61c;" glyph-name="eye" d="M993.47 376.055c-139.605-105.131-305.873-190.843-480.863-190.843-174.952 0-341.22 85.713-480.863 190.843-20.366 14.981-31.744 37.433-31.744 61.668 0 24.007 11.378 46.497 31.744 61.743 139.643 105.169 305.911 195.053 480.863 195.053 174.99 0 341.257-89.884 480.863-195.053 20.101-15.246 31.744-37.736 31.744-61.743 0-24.235-11.643-46.687-31.744-61.668zM512.607 617.529c-99.442 0-179.769-80.593-179.769-179.769 0-99.442 80.327-179.769 179.769-179.769 99.176 0 179.731 80.327 179.731 179.769 0 99.176-80.555 179.769-179.731 179.769zM512.607 329.899c-59.62 0-107.823 48.242-107.823 107.823 0 10.202 1.479 19.759 4.513 29.089 8.988-6.599 20.063-10.505 32.009-10.505 30.265 0 54.537 24.273 54.537 54.537 0 11.416-3.603 22.187-9.595 31.175 8.382 2.389 17.105 3.603 26.359 3.603 59.62 0 107.861-48.242 107.861-107.899 0-59.582-48.242-107.823-107.861-107.823z" />
<glyph unicode="&#xe61d;" glyph-name="factory" d="M0 7.467v63.445h63.488v444.288h317.312l190.379 190.421v-190.421l190.421 190.421v-190.421l190.379 190.421v-634.709h63.488v-63.445h-1015.467zM317.355 388.267h-126.933v-126.933h126.933v126.933zM571.221 388.267h-126.933v-126.933h126.933v126.933zM825.088 388.267h-126.933v-126.933h126.933v126.933zM190.421 896v-380.757l-126.933-0.043v380.8h126.933zM380.8 896v-380.757l-126.933-0.043v380.8h126.933z" />
<glyph unicode="&#xe61e;" glyph-name="family-home" d="M1034.076 422.482l-227.287 227.287v253.665h-128.778v-124.887l-160.973 160.973-517.038-517.038 68.28-68.28 62.423 62.423v-446.792h772.628v446.792l62.423-62.423 68.321 68.28zM452.649 130.806h-160.973v128.778h160.973v-128.778zM452.649 388.321h-160.973v128.778h160.973v-128.778zM742.4 34.222h-160.973v225.362h160.973v-225.362zM742.4 388.321h-160.973v128.778h160.973v-128.778z" />
<glyph unicode="&#xe61f;" glyph-name="female" d="M947.751-22.686h-881.388c-36.588 0-66.363 29.735-66.363 66.324v100.116c0 33.989 25.836 67.072 58.801 75.303l331.54 82.865c8.822 2.284 18.235-0.315 24.773-6.695 20.953-20.519 53.957-45.056 91.924-45.056s71.010 24.497 92.002 45.056c6.538 6.38 15.951 8.98 24.734 6.695l331.5-82.865c32.965-8.231 58.801-41.314 58.801-75.303v-100.116c0.079-36.588-29.735-66.324-66.324-66.324zM785.29 310.981c-1.851 0-3.702 0.118-5.593 0.394l-173.568 24.812c-31.468-22.646-64.906-35.289-98.895-35.289-34.028 0-67.505 12.682-99.052 35.407l-174.316-24.891c-1.851-0.236-3.702-0.394-5.593-0.394-11.855 0-23.158 5.356-30.72 14.73-8.743 10.87-11.067 25.482-6.183 38.558 17.014 45.489 55.808 160.295 70.498 245.445l5.671 51.948c0.118 1.339 0.236 2.875 0.236 4.214 0 3.23 0.473 6.302 1.221 9.334 13.036 212.795 154.506 245.366 238.277 245.366 84.441 0 227.761-32.807 238.946-252.692l7.68-69.947c16.030-83.692 52.106-190.306 68.332-233.748 4.923-13.036 2.521-27.687-6.183-38.558-7.562-9.334-18.905-14.69-30.759-14.69zM667.018 665.915c0 0.551 0.118 1.063 0.158 1.615-2.639 40.881-10.673 74.279-24.222 100.588-45.332-48.719-140.288-125.125-299.835-147.259-0.906-6.892-1.733-13.745-2.914-20.953l-0.788-7.129c7.483-28.436 18.196-57.265 31.193-83.81 38.912-79.675 91.254-129.182 136.665-129.182 45.607 0 98.146 49.861 137.137 130.127 12.682 26.191 23.158 54.469 30.484 82.235-4.726 26.782-7.877 52.185-7.877 73.767z" />
<glyph unicode="&#xe620;" glyph-name="fruit" d="M611.486-62.503c-11.737-2.914-24.615-4.372-38.203-4.372-22.528 0-41.472 3.938-51.673 7.601-9.413 3.387-19.81 3.426-29.538-0.039-10.082-3.623-29.026-7.562-51.554-7.562-13.588 0-26.466 1.497-38.164 4.372-186.565 46.277-284.199 254.188-284.199 435.633v2.914c0 154.427 125.637 280.103 280.064 280.103 28.081 0 55.966-4.254 82.944-12.721 13.312-4.175 38.203-4.175 51.436 0 27.018 8.468 54.902 12.721 82.983 12.721 154.427 0 280.064-125.637 280.064-280.103v-2.914c0-181.445-97.595-389.356-284.16-435.633zM704.63 735.626c-61.519-61.598-191.212-67.23-196.726-67.426-0.118 0-0.276 0-0.394 0 0 0-0.039-0.039-0.079-0.039-0.118 0.039-0.354 0.039-0.512 0-0.354 0-0.67 0-1.024 0.039-9.57 0.354-94.602 4.766-137.492 47.655-42.811 42.772-47.262 127.882-47.616 137.452-0.276 7.404 2.521 14.533 7.759 19.771s12.485 8.31 19.81 7.759c9.57-0.354 94.562-4.805 137.413-47.695 6.302-6.262 11.461-13.588 16.187-21.268 9.964 29.657 24.497 59.195 45.804 80.542 61.598 61.558 191.291 67.23 196.805 67.426 7.522 0.788 14.533-2.521 19.771-7.759s8.034-12.367 7.759-19.771c-0.197-5.435-5.868-135.129-67.466-196.687z" />
<glyph unicode="&#xe621;" glyph-name="gamepad" d="M767.052 614.343h-221.032v117.039c0 21.504-17.446 38.988-38.988 38.988s-39.026-17.484-39.026-38.988v-117.001h-220.994c-136.192-0.038-247.012-110.82-247.012-247.012s110.82-247.012 247.012-247.012c77.141 0 151.021 36.523 197.67 97.735 1.972 2.579 7.661 5.916 9.406 6.258h105.207c2.465-0.379 8.154-3.679 10.126-6.258 46.611-61.212 120.529-97.735 197.632-97.735 136.192 0 247.012 110.82 247.012 247.012s-110.857 246.974-247.012 246.974zM325.025 328.344h-39.026v-38.988c0-21.542-17.446-38.988-38.988-38.988-21.504 0-38.988 17.446-38.988 38.988v38.988h-39.026c-21.504 0-38.988 17.446-38.988 38.988s17.484 38.988 38.988 38.988h38.988v39.026c0 21.542 17.484 38.988 38.988 38.988 21.542 0 38.988-17.446 38.988-38.988v-38.988h39.064c21.504 0 38.988-17.446 38.988-38.988s-17.484-39.026-38.988-39.026zM767.052 484.333c21.542 0 38.988-17.446 38.988-38.988s-17.446-38.988-38.988-38.988c-21.58 0-38.988 17.446-38.988 38.988s17.408 38.988 38.988 38.988zM689 328.344c-21.542 0-38.988 17.446-38.988 38.988s17.446 38.988 38.988 38.988 39.026-17.446 39.026-38.988-17.446-38.988-39.026-38.988zM767.052 250.368c-21.58 0-38.988 17.408-38.988 38.988 0 21.542 17.408 38.988 38.988 38.988 21.542 0 38.988-17.446 38.988-38.988 0-21.58-17.446-38.988-38.988-38.988zM845.028 328.344c-21.542 0-38.988 17.446-38.988 38.988s17.446 38.988 38.988 38.988 38.988-17.446 38.988-38.988-17.408-38.988-38.988-38.988z" />
<glyph unicode="&#xe622;" glyph-name="gas" d="M896.012 832.012h-64.017v64.017h-191.96c-0.046 35.154-28.863 63.971-64.017 63.971h-512c-35.2 0-64.017-28.817-64.017-63.971v-896.012c0-35.2 28.817-64.017 64.017-64.017h512c35.2 0 63.971 28.817 63.971 64.017v447.983h64.017v-255.977c0-70.586 57.403-128.035 127.988-128.035h64.017c70.586 0 127.988 57.403 127.988 128.035v512c0 70.586-57.449 127.988-127.988 127.988zM479.991 576.035h-32.009v191.96h-63.971v-191.96h-224.014c-17.577 0-32.009 14.385-32.009 31.962v192.006c0 17.577 14.432 32.009 32.009 32.009h319.994c17.577 0 32.009-14.432 32.009-32.009v-192.006c0-17.577-14.432-31.962-32.009-31.962zM896.012 192.023h-64.017v255.977c0 70.586-57.403 128.035-127.988 128.035h-64.017v127.988h256.023v-512z" />
<glyph unicode="&#xe623;" glyph-name="glass" d="M693.207-2.683l-143.811 35.963v286.065c135.332 19.005 209.306 122.511 209.306 296.755 0 90.112-42.598 304.333-44.401 313.385-3.523 17.736-19.128 30.515-37.233 30.515h-349.635c-18.104 0-33.71-12.78-37.233-30.515-1.802-9.052-44.442-223.273-44.442-313.385 0-182.026 80.568-287.089 227.738-299.008v-282.624l-148.398-37.11c-18.596-4.628-30.761-22.446-28.426-41.452s18.473-33.3 37.642-33.3h349.676c19.169 0 35.348 14.295 37.642 33.3 2.335 18.964-9.871 36.782-28.426 41.411z" />
<glyph unicode="&#xe624;" glyph-name="glasses" d="M1018.334 573.713c-5.052 20.685-20.617 37.751-32.905 44.919-21.914 12.663-168.858 15.121-185.549 15.36-0.171 0-0.307 0-0.444 0-0.683 0-1.297-0.171-1.946-0.205-4.028 0.375-7.817 0.853-11.981 1.092-8.499 0.512-18.637 0.853-29.867 0.853-63.522 0-115.405-9.353-153.975-26.829l-54.579-8.533c-19.763-3.106-54.409-3.106-74.172 0l-54.579 8.533c-38.571 17.476-90.487 26.829-154.010 26.829-11.23 0-21.367-0.341-29.833-0.853-4.164-0.239-8.124-0.717-12.151-1.058-0.614 0-1.195 0.171-1.775 0.171-0.137 0-0.307 0-0.444 0-16.691-0.273-163.635-2.697-185.515-15.36-12.288-7.1-27.853-24.166-32.939-44.851-3.652-14.916-1.297-30.003 6.656-42.496 6.724-10.581 33.28-66.697 49.971-103.185 0.137-0.307 0.375-0.546 0.546-0.853 3.618-22.903 9.25-48.777 18.91-79.531 19.9-63.386 92.126-98.338 203.332-98.338 18.842 0 38.059 1.058 57.173 3.14 43.622 4.745 76.868 21.333 104.687 52.258 42.974 47.821 53.077 117.111 53.897 168.619l8.533 5.939c1.946 1.161 7.305 1.126 9.182 0.034l8.602-5.973c0.785-51.507 10.923-120.798 53.931-168.653 27.75-30.891 60.996-47.479 104.653-52.224 19.115-2.082 38.332-3.14 57.173-3.14 0 0 0 0 0 0 111.172 0 183.398 34.918 203.298 98.338 9.66 30.788 15.326 56.661 18.944 79.565 0.137 0.273 0.41 0.512 0.546 0.819 16.691 36.489 43.247 92.638 49.937 103.151 7.953 12.493 10.308 27.546 6.69 42.462zM395.469 347.409c-17.34-19.285-35.908-28.399-64.102-31.471-16.828-1.843-33.758-2.765-50.278-2.765-78.643 0-131.891 20.070-142.473 53.692-18.432 58.607-20.685 96.768-22.903 133.769-0.273 4.54 0.205 20.651 18.091 37.001 14.575 13.312 44.544 29.969 104.516 33.553 7.407 0.444 16.247 0.717 26.010 0.717 18.569 0 87.279-1.57 130.97-22.733 0.751-0.375 1.502-0.751 2.287-1.058 19.695-10.035 33.826-24.269 35.021-44.51 4.028-67.447-9.865-125.85-37.137-156.194zM881.391 366.865c-10.581-33.621-63.829-53.692-142.473-53.692-16.521 0-33.451 0.922-50.278 2.765-28.228 3.072-46.797 12.151-64.102 31.437-27.307 30.379-41.165 88.815-37.137 156.297 1.195 20.207 15.326 34.441 34.953 44.476 0.887 0.307 1.673 0.751 2.492 1.161 43.691 21.060 112.23 22.63 130.799 22.63 9.796 0 18.603-0.307 26.044-0.717 65.673-3.925 95.846-23.211 109.568-38.741 12.937-14.609 13.21-28.058 12.971-31.915-2.15-36.864-4.403-75.025-22.835-133.7z" />
<glyph unicode="&#xe625;" glyph-name="globe" d="M512 960c-282.313 0-512-229.687-512-512s229.687-512 512-512c282.313 0 512 229.687 512 512s-229.729 512-512 512zM891.078 238.251h-129.411c19.478 50.159 31.851 103.077 36.783 157.333h143.372c-6.813-56.513-24.327-109.681-50.744-157.333zM82.136 395.584h144.751c4.974-54.172 17.305-107.132 36.825-157.333h-130.79c-26.417 47.651-43.931 100.82-50.786 157.333zM120.842 633.505c3.678-1.129 7.566-1.923 11.662-1.923h121.887c-16.887-50.494-26.835-103.328-29.301-157.333h-145.085c3.386 56.763 17.639 110.476 40.838 159.255zM552.002 710.207v115.993c37.87-34.275 70.265-73.358 96.222-115.993h-96.222zM687.348 631.583c19.687-49.95 31.349-102.994 34.275-157.333h-169.622v157.333h135.346zM473.336 826.159v-115.951h-96.18c25.957 42.594 58.31 81.718 96.18 115.951zM473.336 631.583v-157.333h-169.58c2.884 54.381 14.504 107.382 34.15 157.333h135.43zM305.888 395.584h167.448v-157.333h-124.186c-22.822 49.574-37.41 102.659-43.262 157.333zM473.336 159.585v-89.827c-29.97 27.128-56.554 57.265-79.168 89.827h79.168zM552.002 69.8v89.785h79.168c-22.613-32.52-49.156-62.615-79.168-89.785zM552.002 238.251v157.333h167.448c-5.768-54.757-20.44-107.8-43.179-157.333h-124.269zM800.29 474.208c-2.508 54.005-12.456 106.839-29.385 157.333h133.173c22.655-48.32 36.533-101.322 39.918-157.333h-143.706zM856.426 710.207h-118.459c-28.883 57.098-66.921 109.849-113.318 155.828 93.631-25.163 174.554-80.798 231.777-155.828zM401.315 866.537c-46.69-46.063-84.978-98.981-113.987-156.329h-119.755c57.599 75.573 139.275 131.375 233.742 156.329zM189.226 159.585h112.315c26.961-47.275 60.316-91.164 99.775-130.080-83.181 21.945-156.413 67.84-212.090 130.080zM624.482 29.965c39.291 38.832 72.647 82.512 99.524 129.62h110.726c-55.259-61.779-127.822-107.508-210.251-129.62z" />
<glyph unicode="&#xe626;" glyph-name="guitar" d="M1016.77 816.576l-129.161-129.161c-5.018-5.018-11.616-7.547-18.214-7.547s-13.197 2.529-18.254 7.547l-6.677 6.677-0.040-0.040-92.969 93.048c-10.075 10.075-10.075 26.393 0 36.468l129.121 129.161c9.68 9.68 26.788 9.68 36.468 0l99.646-99.646c10.194-10.115 10.194-26.433 0.079-36.508zM590.923 440.592c57.686-80.878 60.372-163.891 3.2-221.102-21.415-21.415-53.616-41.407-91.546-56.974-16.595-69.697-49.112-133.507-88.267-172.701-35.244-35.204-79.693-53.853-128.568-53.853-65.548 0-136.47 33.229-194.393 91.23-46.623 46.583-77.797 102.293-87.793 156.858-11.735 64.047 5.69 121.496 50.337 166.143 39.195 39.195 102.965 71.633 172.701 88.267 15.607 37.97 35.599 70.171 57.014 91.586 27.697 27.697 60.847 41.723 98.54 41.723 38.681 0 81.392-16.16 122.365-45.082l217.191 217.23 86.291-86.291-217.072-217.033zM408.462 344.383c-34.374 34.414-90.164 34.414-124.538 0-34.414-34.374-34.453-90.164 0-124.577 34.414-34.414 90.164-34.374 124.538 0.040 34.414 34.414 34.414 90.164 0 124.538z" />
<glyph unicode="&#xe627;" glyph-name="hamburger" d="M947.712 328.586h-884.539c-34.737 0-63.173 21.346-63.173 47.38 0 26.073 28.436 47.38 63.173 47.38h884.539c34.737 0 63.173-21.307 63.173-47.38 0-26.033-28.436-47.38-63.173-47.38zM505.423 802.462c244.263 0 442.25-141.43 442.25-315.904h-884.5c0 174.474 198.026 315.904 442.25 315.904zM663.394 634.644c22.922 0 41.472 18.55 41.472 41.472s-18.55 41.472-41.472 41.472c-22.922 0-41.472-18.55-41.472-41.472 0.039-22.922 18.55-41.472 41.472-41.472zM568.635 539.884c22.922 0 41.472 18.55 41.472 41.472s-18.55 41.472-41.472 41.472c-22.922 0-41.472-18.55-41.472-41.472s18.55-41.472 41.472-41.472zM515.308 707.702c0 22.922-18.55 41.472-41.472 41.472s-41.472-18.55-41.472-41.472 18.55-41.472 41.472-41.472 41.472 18.55 41.472 41.472zM442.25 539.884c22.922 0 41.472 18.55 41.472 41.472s-18.55 41.472-41.472 41.472c-22.922 0-41.472-18.55-41.472-41.472s18.55-41.472 41.472-41.472zM315.904 603.057c22.922 0 41.472 18.55 41.472 41.472s-18.55 41.472-41.472 41.472-41.472-18.59-41.472-41.511c0-22.882 18.55-41.433 41.472-41.433zM126.346 265.413h758.154c34.777 0 63.173-28.436 63.173-63.173v-31.586c0-34.737-28.436-63.173-63.173-63.173h-758.154c-34.777 0-63.173 28.436-63.173 63.173v31.586c0 34.777 28.436 63.173 63.173 63.173z" />
<glyph unicode="&#xe628;" glyph-name="heart" d="M732.338 848.696c-90.29 0-172.566-41.85-225.235-112.106-52.625 70.255-134.901 112.106-225.191 112.106-155.425 0-281.912-126.442-281.912-281.912 0-44.922 10.24-87.841 30.898-128.356 101.198-186.724 266.151-331.064 464.362-406.528 3.784-1.558 7.836-2.315 11.887-2.315 3.784 0 7.613 0.668 11.264 2.048 198.522 75.42 363.654 219.893 465.386 407.507 20.257 39.758 30.497 82.677 30.497 127.599-0.045 155.514-126.531 281.956-281.956 281.956z" />
<glyph unicode="&#xe629;" glyph-name="hospital" horiz-adv-x="1042" d="M1010.399-64h-255.974c-17.614 0-31.997 14.435-31.997 31.997v320.020h-402.409v-320.020c0-17.562-14.383-31.997-31.997-31.997h-256.026c-17.614 0-31.997 14.435-31.997 31.997v960.007c0 17.614 14.383 31.997 31.997 31.997h255.974c17.614 0 31.997-14.383 31.997-31.997v-319.967h402.409v319.967c0 17.614 14.435 31.997 32.049 31.997h255.974c17.614 0 31.997-14.383 31.997-31.997v-959.954c0-17.614-14.383-32.049-31.997-32.049z" />
<glyph unicode="&#xe62a;" glyph-name="hotel" d="M870.534 129.046v163.217h-707.317v-163.217h-163.217v571.258c0 44.878 36.73 81.608 81.608 81.608s81.608-36.73 81.608-81.608v-244.825h870.534v-326.433h-163.217zM979.345 509.885h-435.289c-29.919 0-54.406 24.487-54.406 54.406v90.067c79.961 46.481 173.011 73.194 272.028 73.194s192.067-26.669 272.028-73.194v-90.023c0.045-29.963-24.442-54.45-54.361-54.45zM326.433 509.885c-60.104 0-108.811 48.707-108.811 108.811s48.707 108.811 108.811 108.811c60.104 0 108.811-48.751 108.811-108.811s-48.707-108.811-108.811-108.811z" />
<glyph unicode="&#xe62b;" glyph-name="house" d="M974.458 512.902l-432.421 432.469c-19.505 19.456-51.054 19.456-70.558 0l-432.469-432.469c-14.238-14.238-18.53-35.742-10.825-54.37 7.753-18.627 25.941-30.818 46.080-30.818h49.883v-449.097c0-27.55 22.333-49.883 49.883-49.883h199.582c27.55 0 49.883 22.333 49.883 49.883v249.515h166.327v-249.515c0-27.55 22.333-49.883 49.883-49.883h199.582c27.55 0 49.883 22.333 49.883 49.883v449.097h49.883c20.187 0 38.376 12.19 46.080 30.818 7.899 18.627 3.608 40.131-10.679 54.37z" />
<glyph unicode="&#xe62c;" glyph-name="information" d="M522.507 960c97.681 0 177.063-79.961 177.063-177.642 0-97.636-79.382-177.063-177.063-177.063s-177.063 79.427-177.063 177.063c0 97.681 79.382 177.642 177.063 177.642zM733.407 379.347c0-23.641-19.278-42.919-42.919-42.919h-57.967v-183.519h57.967c23.641 0 42.919-18.833 42.919-42.385v-134.678c0-23.641-19.278-42.963-42.919-42.963h-335.917c-23.641 0-42.919 19.322-42.919 42.963v134.678c0 23.552 19.278 42.385 42.919 42.385h57.967v183.519h-57.967c-23.641 0.045-42.919 19.322-42.919 42.919v134.144c0 23.641 19.278 42.919 42.919 42.919h335.917c23.641 0 42.919-19.278 42.919-42.919v-134.144z" />
<glyph unicode="&#xe62d;" glyph-name="key" d="M1033.899 397.483l-30.455 121.742c-3.3 13.691-15.512 23.135-29.506 23.135h-504.908c-36.826 90.681-126.331 152.159-225.545 152.159-134.22 0-243.484-109.265-243.484-243.484s109.265-243.484 243.484-243.484c92.236 0 176.849 53.248 217.657 134.827l65.119-65.119c11.871-11.833 31.365-11.833 43.236 0l69.67 70.011 69.708-70.011c11.871-11.833 31.365-11.833 43.236 0l69.708 70.011 69.67-70.011c11.871-11.833 31.365-11.833 43.236 0l91.326 91.326c7.547 7.585 10.581 18.546 7.851 28.9zM243.484 390.163c-33.451 0-60.871 27.42-60.871 60.871s27.42 60.871 60.871 60.871c33.489 0 60.871-27.42 60.871-60.871s-27.383-60.871-60.871-60.871z" />
<glyph unicode="&#xe62e;" glyph-name="lcd" d="M959.652 837.12h-883.876c-41.697 0-75.776-34.079-75.776-75.776v-530.35c0-41.697 34.079-75.776 75.776-75.776h312.812l-32.358-64.389c-3.932-7.823-3.523-17.121 1.065-24.576s12.739-12.001 21.463-12.001h277.791c8.765 0 16.876 4.547 21.504 12.001 4.588 7.455 4.997 16.753 1.065 24.576l-32.44 64.43h312.893c41.697 0 75.776 34.079 75.776 75.776v530.309c0.041 41.697-34.038 75.776-75.694 75.776zM934.38 736.113v-479.805h-833.372v479.805h833.372z" />
<glyph unicode="&#xe62f;" glyph-name="leaf" d="M1013.614 879.055c-5.656 8.29-14.287 13.946-24.235 14.97-5.998 0.634-146.53 17.213-314.904 17.213-244.151 0-411.892-33.841-498.883-100.937-164.766-126.586-208.994-348.111-108.983-519.168 344.795 413.208 826.075 514.828 826.075 514.828-375.954-172.13-617.813-400.482-755.371-563.931 0 0.049-0.098 0.146-0.146 0.244-3.267-3.852-18.286-22.723-18.237-22.772-42.277-52.907-82.31-110.494-118.93-173.544l60.855-58.417c0 0 38.083 71.631 122.978 176.323 64.658-44.471 141.751-69.047 223.915-69.047 83.675 0 164.425 25.6 233.862 73.728 191.342 133.218 368.006 659.651 375.32 681.935 3.267 9.655 1.999 19.944-3.316 28.574z" />
<glyph unicode="&#xe630;" glyph-name="library" d="M840.119 78.58c35.889 0 65.292 29.403 65.292 65.292v750.836c-0.049 35.889-29.403 65.292-65.292 65.292h-130.584v-425.984l-81.627 81.627-81.627-81.676v426.033h-359.083c-35.889 0-65.292-29.403-65.292-65.292v-883.224c0-53.004 43.934-96.158 97.914-96.158h620.251c36.571 0 65.292 27.892 65.292 63.488v34.426c0 18.042-14.58 32.622-32.622 32.622s-32.622-14.58-32.622-32.622v-32.622h-620.3c-18.286 0-32.622 13.556-32.622 30.866v67.096h652.922z" />
<glyph unicode="&#xe631;" glyph-name="lunch" d="M656.939 329.941c31.531 0 57.301-25.771 57.301-57.301v-286.379c0-31.488-25.771-57.301-57.301-57.301-31.488 0-57.259 25.771-57.259 57.301v973.739h57.259c63.275 0 114.56-51.285 114.56-114.56v-400.939c0-63.275-51.285-114.56-114.56-114.56zM427.819 559.061v-62.592c33.195-11.904 57.259-43.435 57.259-80.597v-400.939c0-47.232-38.656-85.931-85.931-85.931s-85.931 38.656-85.931 85.931v400.939c0 37.163 24.064 68.693 57.259 80.597v62.592c-62.933 0-114.475 51.541-114.475 114.56v229.12c0 31.488 25.771 57.259 57.259 57.259v-286.379h57.259v229.12c0.043 31.488 25.813 57.259 57.301 57.259v-286.379h57.301v229.12c0 31.488 25.771 57.259 57.259 57.259v-286.379c0-63.019-51.541-114.56-114.56-114.56z" />
<glyph unicode="&#xe632;" glyph-name="mail" d="M973.739 118.869h-919.637c-29.739 0-54.101 24.32-54.101 54.059v21.632l27.051 17.835 27.051 18.133 287.787 191.744 159.317-83.84c4.053-2.176 8.363-3.243 12.715-3.243s8.661 1.067 12.715 3.243l159.317 83.84 341.888-227.712v-21.632c0-29.739-24.363-54.059-54.101-54.059zM973.739 295.765l-233.173 155.221 287.275 151.168v-342.443l-27.051 17.835-27.051 18.219zM973.739 634.923l-459.819-242.091-513.92 270.507v50.56c0 29.739 24.363 54.101 54.101 54.101h919.68c29.739 0 54.101-24.363 54.101-54.101v-50.603l-27.093-14.336-27.051-14.037zM54.101 573.824l233.131-122.837-287.232-191.232v342.443l27.051-14.336 27.051-14.037z" />
<glyph unicode="&#xe633;" glyph-name="male" horiz-adv-x="1032" d="M964.33-64h-896.766c-37.268 0-67.564 30.296-67.564 67.524v101.907c0 34.583 26.288 68.205 59.83 76.621l337.339 84.315c8.936 2.284 18.554-0.321 25.166-6.813 21.399-20.878 54.941-45.844 93.572-45.844s72.213 24.926 93.612 45.844c6.652 6.532 16.23 9.137 25.166 6.813l337.299-84.315c33.542-8.375 59.83-42.037 59.83-76.621v-101.907c0.080-37.228-30.256-67.524-67.484-67.524zM733.146 552.332c-7.894-29.174-18.915-58.668-32.139-85.998-48.529-99.903-115.973-157.169-185.060-157.169-68.806 0-136.090 56.904-184.579 156.167-13.425 27.571-24.645 57.425-32.62 87-21.079 16.55-33.742 41.997-33.742 68.927 0 21.239 7.854 41.677 21.84 57.626 2.004 28.011 6.492 52.496 12.623 74.296h-0.16c0.721 2.044 1.443 4.368 2.164 6.492 1.883 6.131 3.687 12.383 5.851 18.033 12.343 40.595 23.964 88.563 47.046 102.428 27.971 16.751 147.19 74.537 169.511 78.264 22.361 3.687 67.043 0 67.043 0s31.498-8.856 44.722-45.363c13.224-36.547 53.218-23.363 79.746-114.009h-0.080c15.348-31.137 26.168-70.369 29.735-120.060 13.986-15.949 21.84-36.387 21.84-57.626 0-27.41-12.383-52.456-33.742-69.007z" />
<glyph unicode="&#xe634;" glyph-name="map" d="M926.592 80.939l-196.48-109.141v607.317l161.707 89.813c11.093 6.144 24.619 6.016 35.541-0.427s17.664-18.176 17.664-30.891v-525.355c-0.043-13.013-7.083-25.003-18.432-31.317zM679.424-39.723l-212.053 96.384v363.179c33.28 61.013 67.584 132.352 89.387 200.235l125.525-57.045v-598.699c0-1.92 0.64-3.584 1.067-5.333-0.085 0-0.171 0.043-0.299 0.085-1.195 0.341-2.432 0.64-3.627 1.195zM300.459 304.811c-11.733 0-22.699 5.888-29.227 15.616-7.595 11.349-185.899 280.448-185.899 424.448 0 118.613 96.512 215.125 215.125 215.125s215.125-96.512 215.125-215.125c0-144-178.304-413.099-185.899-424.448-6.571-9.771-17.493-15.616-29.227-15.616zM405.717 737.707c0 58.069-47.232 105.301-105.301 105.301s-105.301-47.232-105.301-105.301 47.232-105.301 105.301-105.301 105.301 47.232 105.301 105.301zM300.245 231.68c31.915 0 61.739 15.957 79.488 42.539 7.552 11.392 22.144 33.792 39.936 62.891v-272.427l-185.6-103.125c-5.419-2.987-11.392-4.48-17.408-4.48-6.272 0-12.544 1.664-18.176 4.949-10.923 6.443-17.664 18.176-17.664 30.891v344.149c17.792-29.141 32.384-51.541 39.936-62.891 17.749-26.539 47.573-42.496 79.488-42.496z" />
<glyph unicode="&#xe635;" glyph-name="mic" d="M542.758 71.471v-42.287h112.981c23.4 0 42.363-18.963 42.363-42.363s-18.963-42.363-42.363-42.363h-282.472c-23.4 0-42.363 18.963-42.363 42.363s18.963 42.363 42.363 42.363h84.727v46.080c-152.235 26.852-268.364 159.82-268.364 319.64 0 23.4 18.963 42.363 42.401 42.363 23.4 0 42.363-18.963 42.363-42.363 0-125.762 97.242-229.111 220.501-239.123 1.82 0.265 3.603 0.569 5.499 0.569 3.489 0 6.865-0.569 10.088-1.365 1.365 0 2.693-0.19 4.020-0.19 132.399 0 240.109 107.71 240.109 240.109 0 23.4 18.963 42.363 42.363 42.363s42.401-18.963 42.401-42.363c0-169.605-130.731-309.058-296.619-323.432zM514.503 225.527c-109.037 0-197.746 88.709-197.746 197.746v114.385h395.492v-114.385c0-109.037-88.709-197.746-197.746-197.746zM655.739 594.167h-338.982v168.088c0 108.734 88.671 197.746 197.746 197.746s197.746-89.012 197.746-197.746v-168.088h-56.51zM429.777 831.469c-21.732 0-39.557-17.825-39.557-39.557 0-22.187 17.825-39.557 39.557-39.557s39.557 17.37 39.557 39.557c0 21.732-17.863 39.557-39.557 39.557zM429.777 718.488c-21.732 0-39.557-17.825-39.557-39.557 0-22.187 17.825-39.557 39.557-39.557s39.557 17.37 39.557 39.557c0 21.732-17.863 39.557-39.557 39.557zM514.503 887.979c-21.732 0-39.557-17.825-39.557-39.557 0-22.187 17.825-39.557 39.557-39.557s39.557 17.37 39.557 39.557c0 21.732-17.825 39.557-39.557 39.557zM514.503 774.959c-21.732 0-39.557-17.825-39.557-39.557 0-22.149 17.825-39.557 39.557-39.557s39.557 17.37 39.557 39.557c0 21.732-17.825 39.557-39.557 39.557zM599.23 831.469c-21.732 0-39.557-17.825-39.557-39.557 0-22.187 17.825-39.557 39.557-39.557s39.557 17.37 39.557 39.557c0.038 21.732-17.787 39.557-39.557 39.557zM599.23 718.488c-21.732 0-39.557-17.825-39.557-39.557 0-22.187 17.825-39.557 39.557-39.557s39.557 17.37 39.557 39.557c0.038 21.732-17.787 39.557-39.557 39.557z" />
<glyph unicode="&#xe636;" glyph-name="mountain" d="M1021.879 163.803c-4.425-8.265-12.983-13.422-22.382-13.422h-279.259c9.143 0 17.518 4.901 22.053 12.8 4.535 7.936 4.462 17.664-0.183 25.527l-132.827 224.841 115.895 158.062c4.901 6.693 12.288 11.41 21.065 10.386 8.302-0.183 15.982-4.425 20.553-11.301l253.879-380.818c5.157-7.79 5.632-17.774 1.207-26.075zM707.511 163.109c-4.571-7.863-12.946-12.69-22.089-12.69h-660.041c-9.143 0-17.518 4.827-22.089 12.69-4.571 8.119-4.315 17.774 0.256 25.637l209.701 355.145c0.256 0 0.256 0.256 0.256 0.256l120.064 203.081c9.143 15.47 34.523 15.47 43.703 0l120.064-203.081c0 0 0-0.256 0.256-0.256l209.701-355.145c4.535-7.863 4.791-17.518 0.219-25.637zM355.401 684.288l-75.374-127.707h150.784l-75.41 127.707z" />
<glyph unicode="&#xe637;" glyph-name="music" horiz-adv-x="1023" d="M1022.88 211.058c-2.007-80.389-73.9-155.736-174.969-176.323-113.954-23.295-221.373 31.791-239.999 122.917-18.627 91.079 58.681 183.886 172.588 207.134 35.853 7.329 70.725 6.116 102.703-0.747v367.538l-466.834-73.526v-523.367c8.683-86.504-65.45-171.281-173.662-193.363-113.907-23.295-221.373 31.791-239.953 122.917-18.627 91.079 58.681 183.886 172.588 207.134 35.199 7.189 69.465 6.162 100.976-0.373v525.608c0 38.654 31.325 70.025 70.025 70.025l606.884 93.367c38.701 0 70.025-31.371 70.025-70.025v-676.909c0-0.747-0.373-1.307-0.373-2.007z" />
<glyph unicode="&#xe638;" glyph-name="palms" d="M957.474 547.977c19.797-35.703 37.786-72.806 51.2-112.401 12.902-39.322 22.801-82.5 14.643-126.396-1.741-9.284-10.65-15.462-19.968-13.687-7.885 1.434-13.517 8.090-13.995 15.735l-0.034 0.956c-2.116 33.826-18.159 66.56-37.376 96.802-19.524 30.345-43.179 58.675-68.403 85.709-12.766 13.619-27.034 26.010-40.619 38.98 0.068-3.072 0.512-6.11 0.546-9.182 1.092-66.15-11.947-132.779-40.55-190.293-4.233-8.499-14.541-11.947-23.040-7.748-7.202 3.584-10.786 11.571-9.148 19.115l0.068 0.239c12.595 56.969 9.284 114.79-5.018 168.96-7.066 27.136-16.896 53.453-28.604 78.609-7.441 15.906-16.35 32.324-25.463 47.002-2.458 0.58-5.018 1.024-7.27 1.877-0.922 0.341-2.082 0.614-3.038 0.922-10.889-11.332-21.504-23.040-31.778-35.055-21.197-24.883-41.097-50.927-59.802-77.756-37.444-53.658-70.315-110.421-99.123-168.994-57.719-117.214-99.055-241.732-127.351-368.606-6.827-30.515-37.069-49.732-67.584-42.906-26.59 5.939-43.486 29.867-43.145 56.081-0.137 1.161-0.785 2.116-0.853 3.311-0.137 2.56-0.068 5.393 0.205 7.919 7.407 69.666 8.021 140.425-1.263 210.466-4.54 34.987-11.537 69.769-21.436 103.799-4.949 16.998-10.581 33.826-17.135 50.244-0.751 1.843-1.638 3.686-2.389 5.564-2.116-0.478-4.471-1.263-6.656-1.809-2.765-2.355-5.632-4.608-8.192-6.895-10.615-9.899-20.617-20.719-29.423-32.563-17.647-23.552-30.788-51.166-35.806-82.159l-0.102-0.478c-1.365-8.363-9.216-14.029-17.613-12.698-6.315 1.024-11.093 5.769-12.459 11.639-6.383 26.965-6.997 55.979-2.765 84.582-17.613-8.329-34.611-17.613-49.903-28.433-15.394-11.025-29.662-23.62-37.274-38.946l-0.717-1.434c-3.755-7.509-12.868-10.547-20.412-6.827-5.632 2.799-8.772 8.567-8.397 14.507 1.502 26.453 13.175 49.391 25.6 69.803 12.8 20.378 27.648 38.741 43.247 55.945 7.134 7.919 15.019 14.882 22.528 22.323-2.423 1.57-4.949 3.209-6.144 6.042-2.765 6.485-0.649 13.79 4.676 17.92 18.398 14.268 39.322 25.566 61.269 34.031 2.355 0.887 4.813 1.399 7.1 2.253 4.676 3.618 9.011 7.27 14.029 10.957l2.594 1.911c16.623 12.22 36.796 14.848 55.433 10.308 4.847 2.116 9.557 4.301 14.575 6.315 14.131 5.495 28.535 10.035 43.247 13.38 29.252 6.69 59.802 8.499 88.951 3.55 8.26-1.434 13.892-9.25 12.459-17.579-1.161-6.724-6.519-11.639-12.937-12.561l-0.478-0.034c-3.55-0.478-6.793-1.843-10.274-2.526 24.678-5.427 48.879-13.414 71.202-24.747 11.605-5.7 22.733-12.527 33.178-19.9 4.506-3.14 9.011-6.724 13.346-10.342 26.18 38.161 53.521 75.503 83.558 110.66 22.289 26.044 45.67 51.098 70.383 74.889 5.734 5.53 11.844 10.684 17.715 16.043-12.663 2.116-25.634 3.857-38.127 4.881-31.164 2.458-62.942 1.843-94.583-2.15-63.386-7.748-126.157-29.252-183.842-62.669-8.158-4.779-18.637-2.082-23.45 6.076-4.198 7.168-2.458 16.282 3.618 21.606 53.521 46.319 117.316 83.388 187.494 105.916 20.958 6.827 42.564 11.913 64.41 16.145-25.463 13.687-51.575 26.214-78.848 35.977-73.83 26.59-154.624 36.181-234.633 17.51-9.216-2.15-18.432 3.55-20.582 12.8-1.877 8.021 2.253 16.077 9.489 19.422l0.375 0.171c39.765 18.33 84.036 30.618 128.922 35.908 45.056 5.427 91.068 4.267 136.26-2.048 31.949-4.437 63.317-12.083 94.345-21.060-31.573 28.023-67.379 51.541-107.452 66.833l-0.239 0.102c-8.841 3.379-13.278 13.244-9.899 22.084 2.97 7.817 11.059 12.186 19.012 10.786 51.166-9.148 100.42-30.14 144.691-58.3 22.221-14.063 43.281-29.969 63.249-47.241 15.292-13.517 29.457-27.58 43.588-43.247 0.137-0.034 0.307-0.068 0.41-0.102 21.811-7.953 39.629-16.725 58.266-26.726 18.295-9.899 35.908-20.924 52.77-32.905 33.69-23.996 64.41-52.361 89.6-84.89 5.769-7.475 4.403-18.227-3.038-24.030-6.724-5.188-16.111-4.608-22.153 0.99l-0.171 0.171c-16.384 15.292-34.543 28.331-53.35 40.277 3.686-5.188 7.509-10.206 11.196-15.462 23.108-33.28 44.988-67.516 64.853-103.219zM317.577 376.695c-14.746 5.393-29.798 9.114-44.817 11.435 7.373-13.039 14.643-26.18 21.026-39.697 16.247-34.475 29.662-70.349 40.55-107.042 3.755-12.561 6.793-25.327 9.967-38.059 18.227 40.755 38.127 80.691 59.529 119.808-25.873 24.098-55.262 42.359-86.255 53.555zM451.516 425.95c-10.24 2.97-20.514 5.291-30.959 6.554-20.719 2.867-41.643 2.56-62.123-0.034-2.423-0.273-4.813-0.956-7.236-1.297 28.433-22.084 51.78-48.913 70.007-77.824 8.431 14.575 16.316 29.457 25.19 43.759 5.291 8.499 11.264 16.486 16.691 24.883-3.789 1.434-7.543 2.765-11.571 3.959z" />
<glyph unicode="&#xe639;" glyph-name="parking" d="M853.357-64h-682.667c-93.896 0-170.69 76.841-170.69 170.643v682.667c0 93.849 76.794 170.69 170.69 170.69h682.667c93.849 0 170.69-76.841 170.69-170.69v-682.667c-0.047-93.802-76.841-170.643-170.69-170.643zM659.661 624.664c-14.525 19.585-33.267 32.423-56.366 38.327-14.478 4.357-45.214 5.997-93.802 5.997h-127.209v-391.655h79.371v147.685h52.055c35 0 62.316 1.687 81.901 5.904 13.681 2.577 27.316 9.418 40.997 17.898 12.791 9.418 23.896 23.099 33.267 39.217 8.527 16.258 12.791 36.781 12.791 60.583 0 30.783-7.637 56.366-23.005 76.044zM567.452 497.502c-10.261-3.42-31.58-5.997-62.316-5.997h-43.434v110.904h38.374c28.159 0 47.791-0.843 57.162-2.483 12.838-2.577 23.052-7.684 31.58-17.102s11.948-21.319 11.948-35c0-11.901-2.577-22.162-8.527-30.736-5.997-8.481-14.525-15.321-24.786-19.585z" />
<glyph unicode="&#xe63a;" glyph-name="pastry" d="M1017.643 543.403c1.707 8.491 1.365 17.707-0.341 26.837-18.005 95.957-69.376 186.069-153.045 268.715-22.485 22.443-57.856 35.712-94.549 35.712-20.395 0-39.808-4.096-56.064-11.904l-665.984-307.115c-26.197-12.245-40.491-26.539-43.221-43.179 0-0.171 0-0.341 0-0.555-2.603-4.779-4.437-9.984-4.437-15.787v-408.107c0-37.504 30.549-68.011 68.053-68.011h884.267c37.504 0 68.053 30.507 68.053 68.011v442.112c-0.043 4.736-1.024 9.216-2.731 13.269zM680.235 666.197c0 37.376 30.635 68.011 68.011 68.011 37.419 0 68.011-30.635 68.011-68.011 0-37.419-30.592-68.011-68.011-68.011-37.376 0-68.011 30.592-68.011 68.011zM68.053 360.064v102.059h853.675c10.539 0 21.035 1.707 30.549 4.736v-107.904c-1.877 0.341-3.627 1.109-5.632 1.109h-878.592zM68.053 87.979v102.059h878.592c2.005 0 3.755 0.811 5.632 1.109v-103.168h-884.224z" />
<glyph unicode="&#xe63b;" glyph-name="pencil" horiz-adv-x="1025" d="M998.33 712.081l-76.49-76.773-222.486 222.486 76.726 76.773c33.88 33.88 93.288 33.88 127.168 0l95.081-95.081c35.060-35.060 35.060-92.297 0-127.404zM836.999 635.308l21.281-21.281 20.998-20.951-77.386-77.669-21.281 21.328-201.204 201.11 77.669 77.386 21.281-21.328 20.998-20.951 137.644-137.644zM717.050 515.359l21.281-21.281 20.998-20.951-438.176-438.129c-1.51-1.51-2.973-2.737-4.813-3.917-2.076-1.18-4.2-2.407-6.606-3.303-1.51-0.613-2.69-0.897-4.2-1.18l-265.897-88.805c-3.303-1.18-6.323-1.793-9.626-1.793-7.786 0-15.619 3.303-21.281 9.013-7.833 8.069-10.806 19.771-7.22 30.577l89.985 269.908c0 0.283 0.283 0.613 0.283 0.613 0.613 2.407 1.84 4.483 3.020 6.323 0.944 1.463 2.407 3.303 3.917 4.766l438.459 438.129 21.281-21.281 20.998-20.951 137.597-137.738zM133.208 180.38l-18.875-56.813 73.281-73.281 56.813 18.828-111.219 111.266z" />
<glyph unicode="&#xe63c;" glyph-name="pharmacy" d="M939.489 875.586c-56.147 56.195-129.863 84.414-203.58 84.414s-147.434-28.219-203.58-84.414l-448.109-448.061c-112.293-112.293-112.293-294.577 0-407.161 3.437-3.437 7.164-6.922 10.649-10.068 7.454-6.631 14.956-12.633 22.749-18.393s15.537-11.229 23.911-15.828c8.083-4.889 16.408-9.245 25.072-13.262 12.972-6.050 25.944-10.987 39.157-15.005 8.954-2.565 17.86-4.889 27.057-6.631 36.302-6.922 73.717-6.922 110.019 0 9.196 1.742 18.151 4.017 27.057 6.631 13.262 4.017 26.476 8.954 39.157 15.005 8.664 4.017 16.989 8.374 25.072 13.262 10.068 5.711 19.893 12.343 29.090 19.555 6.050 4.598 11.81 9.487 17.57 14.666 3.437 3.146 7.164 6.631 10.649 10.068l448.061 448.061c112.584 112.342 112.584 294.625 0 407.161zM878.406 529.461l-203.629-203.629-187.172 187.172-239.592-239.592c-8.374-8.325-19.603-12.681-30.542-12.681s-22.168 4.308-30.542 12.681c-16.989 16.989-16.989 44.046 0 61.035l239.592 239.592-36.786 36.931 203.58 203.629c38.044 37.996 88.721 59.002 142.545 59.002s104.501-21.055 142.545-59.002c37.996-38.044 59.051-88.721 59.051-142.545 0-53.872-21.007-104.549-59.051-142.593z" />
<glyph unicode="&#xe63d;" glyph-name="phone" d="M955.503 233.697c-39.482 26.678-78.818 55.012-117.034 84.27-32.958 25.12-70.396 39.531-102.867 39.531-27.555 0-50.582-9.883-66.647-28.723l-23.319-27.798c-14.702-17.818-46.541-19.522-66.355-2.775-38.995 32.666-77.114 67.572-113.286 103.792-36.561 36.561-71.515 74.777-104.036 113.578-8.763 10.418-13.096 24.001-11.927 37.243 1.12 11.733 6.329 22.053 14.8 29.015l24.195 20.106c42.354 36.074 39.287 111.825-7.059 172.484-28.772 37.535-57.057 76.919-84.222 117.131-28.577 42.208-74.534 68.448-119.906 68.448-20.106 0-39.579-5.258-56.424-15.433l-62.168-38.070c-26.289-15.433-44.788-43.085-53.6-79.938-16.747-70.347 4.235-162.894 54.768-241.614 75.069-117.326 163.38-227.009 262.451-326.031 99.216-99.216 208.899-187.479 325.982-262.402 60.659-39.044 128.329-60.513 190.594-60.513v0c61.097 0 108.855 21.567 131.152 59.393l38.021 62.168c33.737 55.839 10.369 133.197-53.113 176.135z" />
<glyph unicode="&#xe63e;" glyph-name="picture" d="M936.747 60.672h-840.661c-53.077 0-96.085 43.051-96.085 96.085v600.491c0 53.077 43.008 96.085 96.085 96.085h840.661c53.077 0 96.085-43.008 96.085-96.085v-600.491c0-53.035-43.008-96.085-96.085-96.085zM936.747 757.248h-840.661v-600.491h840.661v600.491zM240.213 709.205c53.077 0 96.043-43.008 96.043-96.085 0-53.035-43.008-96.043-96.043-96.043s-96.085 43.008-96.085 96.043c0 53.077 43.008 96.085 96.085 96.085zM476.501 286.379l181.632 302.72 230.613-384.299h-696.576l168.107 264.192 116.224-182.613z" />
<glyph unicode="&#xe63f;" glyph-name="pin" d="M505.037 960c-210.698 0-382.157-171.459-382.157-382.157 0-166.257 224.87-483.246 321.495-611.779 14.909-19.866 37.028-31.252 60.621-31.252s45.711 11.387 60.621 31.212c96.707 128.614 321.536 445.727 321.536 611.82 0 210.698-171.377 382.157-382.116 382.157zM505.037 758.559c101.786 0 184.648-82.862 184.648-184.648s-82.821-184.648-184.648-184.648-184.648 82.821-184.648 184.648 82.862 184.648 184.648 184.648z" />
<glyph unicode="&#xe640;" glyph-name="play" d="M512 960c-282.46 0-512-229.87-512-512 0-282.507 229.54-512 512-512s512 229.493 512 512c0 282.13-229.493 512-512 512zM699.506 411.95l-269.030-171.578c-32.845-20.829-59.706-5.985-59.706 32.798v353.099c0 38.83 26.813 53.674 59.706 32.845l269.030-171.578c32.845-20.829 32.845-54.758 0-75.587z" />
<glyph unicode="&#xe641;" glyph-name="plug" d="M804.905 753.152h-59.105v147.743c0 32.604-26.542 59.105-59.105 59.105s-59.105-26.501-59.105-59.105v-147.743h-236.421v147.743c0 32.604-26.501 59.105-59.105 59.105s-59.064-26.501-59.064-59.105v-147.743h-59.105c-16.261 0-29.573-13.312-29.573-29.532v-236.421c0-16.22 10.813-37.274 24.044-46.735l158.761-113.418c13.23-9.421 37.356-17.162 53.576-17.162h29.573v-295.485c0-32.604 26.501-59.105 59.105-59.105s59.105 26.501 59.105 59.105v295.485h29.573c16.22 0 40.346 7.741 53.576 17.162l158.761 113.418c13.23 9.421 24.044 30.474 24.044 46.735v236.421c0 16.22-13.312 29.532-29.532 29.532z" />
<glyph unicode="&#xe642;" glyph-name="printer" d="M957.574 171.698h-127.688v-191.533c0-17.542-14.381-31.922-31.922-31.922h-574.509c-17.542 0-31.922 14.381-31.922 31.922v191.533h-127.688c-35.083 0-63.844 28.717-63.844 63.844v414.943c0 35.083 28.761 63.844 63.844 63.844h893.774c35.128 0 63.844-28.761 63.844-63.844v-414.943c-0.045-35.128-28.761-63.844-63.889-63.844zM351.143 44.010h319.176v63.844h-319.176v-63.844zM351.143 203.62v-31.922h319.176v63.844h-319.176v-31.922zM159.61 586.641c-17.542 0-31.922-14.381-31.922-31.922s14.381-31.922 31.922-31.922 31.922 14.381 31.922 31.922-14.381 31.922-31.922 31.922zM925.696 395.108h-829.93v-159.566h95.766v63.844c0 17.542 14.381 31.922 31.922 31.922h574.553c17.542 0 31.922-14.381 31.922-31.922v-63.844h95.766v159.566zM766.086 778.173h-574.553v127.644c0 17.586 14.381 31.922 31.922 31.922h574.553c17.542 0 31.922-14.336 31.922-31.922v-127.688h-63.844z" />
<glyph unicode="&#xe643;" glyph-name="pub" d="M803.309 505.003c52.034 34.323 86.13 93.298 86.13 160.199 0 108.165-89.467 196.873-198.921 192.247-45.359 63.829-119.201 102.552-198.391 102.552-68.949 0-133.044-28.444-178.897-78.696-8.723 1.289-17.446 1.783-26.131 1.783-106.155 0.038-192.284-86.092-192.284-192.247 0-73.045 40.77-136.647 100.997-168.922 0.038-0.038 0.076-0.038 0.114-0.076v-60.113c0-0.531-0.114-1.062-0.114-1.593v-410.093c0-56.396 46.156-102.552 102.514-102.552h358.855c56.396 0 102.552 46.118 102.552 102.552v51.276c84.84 0 153.79 68.949 153.79 153.79v102.552c0 69.708-46.649 128.645-110.213 147.342zM171.729 690.84c0 73.576 70.239 131.982 146.129 111.009l25.107-6.94 15.891 21.011c31.782 42.818 80.479 67.205 133.272 67.205 60.226 0 115.864-32.54 145.332-85.371l13.35-23.59 26.662 4.627c7.168 1.289 13.577 1.783 19.721 1.783 63.564 0 115.371-51.769 115.371-115.371s-51.769-115.371-115.371-115.371c-25.865 0-50.252 8.457-70.732 24.348l-21.542 16.953-23.059-14.867c-26.889-17.18-57.913-26.396-89.733-26.396-38.722 0-74.866 12.819-104.827 37.167l-20.518 16.649-22.793-13.047c-17.446-10.012-37.167-15.132-56.889-15.132-63.602 0-115.371 51.769-115.371 115.333zM349.601 126.919c0-14.108-11.529-25.638-25.638-25.638s-25.638 11.529-25.638 25.638v307.579c0 14.108 11.567 25.638 25.638 25.638s25.638-11.529 25.638-25.638v-307.579zM503.391 126.919c0-14.108-11.529-25.638-25.638-25.638s-25.638 11.529-25.638 25.638v307.579c0 14.108 11.529 25.638 25.638 25.638s25.638-11.529 25.638-25.638v-307.579zM638.748 102.571c-8.192 0.796-15.663 2.313-23.324 4.627h-0.265c-5.613 4.855-9.216 11.795-9.216 19.759v307.579c0 14.108 11.529 25.638 25.638 25.638s25.638-11.529 25.638-25.638v-307.617c0-11.529-7.699-21.276-18.204-24.348h-0.265zM811.008 255.109c0-28.217-23.059-51.276-51.276-51.276v205.065c28.217 0 51.276-23.059 51.276-51.276v-102.514z" />
<glyph unicode="&#xe644;" glyph-name="pushchair" horiz-adv-x="1028" d="M1027.594 531.727c0-104.777-36.528-207.217-103.069-288.585-9.39-11.727-26.239-14.018-38.505-5.122-33.967 24.262-73.91 36.843-115.29 36.843-72.517 0-139.283-39.404-174.688-103.339-4.852-9.166-14.557-14.827-24.846-14.827-10.559 0-19.994 5.661-25.116 14.827-35.090 63.935-102.171 103.339-174.957 103.339-41.381 0-81.054-12.58-115.066-36.528-12.266-8.851-29.115-6.29-38.505 5.122-66.766 81.368-103.339 183.809-103.339 288.316 0 2.561 0.809 4.852 1.438 7.189-0.629 2.336-1.438 4.583-1.438 7.144 0 47.221-38.415 85.637-85.637 85.637-15.815 0-28.575 12.805-28.575 28.575s12.76 28.531 28.531 28.531c73.865 0 134.071-56.612 141.305-128.59h856.905c0.584-8.312 0.899-16.579 0.899-24.846 0-0.584 0-1.438-0.27-2.022 0.225-0.539 0.225-1.123 0.225-1.662zM966.804 588.788h-404.819l145.573 353.375c2.831 7.144 8.312 12.85 15.411 15.681 6.874 2.876 14.827 2.876 21.701 0 155.278-63.935 260.909-205.51 279.734-369.055h-57.6zM371.077 221.44c78.762 0 142.698-63.935 142.698-142.743s-63.935-142.698-142.698-142.698c-78.762 0-142.743 63.935-142.743 142.698s63.98 142.743 142.743 142.743zM770.685 221.44c78.762 0 142.698-63.935 142.698-142.743s-63.935-142.698-142.698-142.698-142.743 63.935-142.743 142.698 63.98 142.743 142.743 142.743z" />
<glyph unicode="&#xe645;" glyph-name="radio" d="M943.391 721.654h-117.924v73.728c0 56.893-46.285 103.178-103.219 103.178h-442.163c-56.893 0-103.219-46.285-103.219-103.178v-73.728h-88.433c-48.66 0-88.433-39.772-88.433-88.433v-560.128c0-48.66 39.772-88.433 88.433-88.433h854.958c48.66 0 88.433 39.813 88.433 88.433v560.128c0 48.66-39.772 88.433-88.433 88.433zM854.958 426.865h-206.397v88.433c0 16.22-13.271 29.491-29.491 29.491s-29.491-13.271-29.491-29.491v-88.433h-412.713c-16.22 0-29.491 13.271-29.491 29.491v117.924c0 16.22 13.271 29.491 29.491 29.491h678.093c16.22 0 29.491-13.271 29.491-29.491v-117.924c0-16.22-13.271-29.491-29.491-29.491zM884.449 219.034c0-48.947-39.485-88.433-88.474-88.433-48.947 0-88.433 39.485-88.433 88.433 0 48.66 39.485 88.433 88.433 88.433s88.474-39.813 88.474-88.433zM324.28 219.034c0-48.947-39.485-88.433-88.433-88.433s-88.474 39.485-88.474 88.433c0 48.66 39.485 88.433 88.474 88.433 48.947 0 88.433-39.813 88.433-88.433zM265.339 795.382c0 7.987 6.717 14.746 14.746 14.746h442.204c8.028 0 14.746-6.758 14.746-14.746v-73.728h-471.695v73.728z" />
<glyph unicode="&#xe646;" glyph-name="scissors" d="M754.347 262.846c88.747 0 160.882-72.097 160.882-160.882 0-88.481-72.135-160.882-160.882-160.882s-160.882 72.401-160.882 160.882c0 1.062 0 1.858 0.265 2.958v0.265l-69.973 148.783-88.481-157.658c-2.958-85.826-73.728-155.269-160.616-155.269-88.747 0.038-160.882 72.439-160.882 160.92 0 88.747 72.135 160.882 160.882 160.882 20.632 0 40.239-3.755 58.444-10.999h0.265l427.956 695.561c4.817 7.737 13.122 12.591 22.263 12.591 10.43 0.265 17.673-4.286 22.793-11.795 62.729-94.094 2.655-186.633 0-190.654l-198.428-353.394 91.174-151.249c17.143 6.447 35.916 9.937 55.22 9.937zM381.914 104.353l-2.958 1.593 2.427 4.286v0.265c-4.286 55.258-50.441 98.683-106.724 98.683-59.24 0-107.255-48.014-107.255-107.255 0-58.975 48.014-107.255 107.255-107.255s107.255 48.28 107.255 107.255v2.427zM540.103 431.768c-4.020 9.14-12.857 15.284-23.324 16.081-0.796 0.265-1.631 0.265-2.389 0.265-15.55 0-28.444-12.629-28.444-28.444 0-5.613 1.631-10.733 4.286-15.019 5.12-7.775 14.222-13.122 24.159-13.122 0.531 0 1.062 0 1.593 0.265 15.019 0.531 26.814 12.857 26.814 27.876 0 4.324-1.062 8.344-2.693 12.098zM647.092 101.964c0-58.975 47.976-107.255 107.255-107.255 59.013 0 107.255 48.28 107.255 107.255 0 59.24-48.242 107.255-107.255 107.255-59.278 0-107.255-48.014-107.255-107.255zM452.153 550.817l-19.304-31.403-15.55-25.448-15.815-25.448-179.39 289.868c-2.124 3.186-62.464 95.687 0.531 189.781 5.12 7.509 13.957 11.833 22.566 11.833 9.102 0 17.673-4.817 22.528-12.591l215.836-345.657-31.403-50.935z" />
<glyph unicode="&#xe647;" glyph-name="shield" d="M892.928 842.017c-7.079 16.785-23.507 27.648-41.761 27.648-141.49 0-250.791 28.049-299.898 77.156-17.675 17.72-46.303 17.497-63.978-0.178-49.152-49.107-158.408-77.69-299.943-77.69-18.209 0-34.638-11.754-41.717-28.538-71.992-170.874-75.42-359.958-9.706-529.453 66.426-171.275 196.385-308.269 366.013-379.726 5.699-2.404 11.709-10.24 17.542-10.24 0.801 0 1.469 0 2.226 0 5.832 0 11.843 7.836 17.542 10.24 169.494 71.368 299.008 211.79 364.767 383.243 64.868 169.183 60.95 356.53-11.086 527.538z" />
<glyph unicode="&#xe648;" glyph-name="ship" d="M712.214-24.687h-683.72c-15.761 0-28.494 12.778-28.494 28.494v170.919c0 14.425 10.819 26.579 25.155 28.271l968.615 113.976c8.058 1.024 16.206-1.603 22.261-6.99 6.099-5.432 9.572-13.178 9.572-21.281 0-309.827-310.227-313.389-313.389-313.389zM858.424 345.912l-427.364-56.988c-1.247-0.134-2.493-0.223-3.74-0.223-6.856 0-13.535 2.493-18.744 7.079-6.189 5.387-9.706 13.223-9.706 21.415v569.745c0 9.171 4.408 17.72 11.843 23.107s16.963 6.856 25.689 3.918c4.452-1.469 446.82-153.422 446.82-539.826-0.089-14.247-10.641-26.312-24.799-28.227zM345.4 288.924l-227.907-28.494c-1.202-0.134-2.36-0.223-3.562-0.223-11.798 0-22.483 7.302-26.669 18.566-4.63 12.377-0.089 26.312 10.908 33.614 158.765 105.828 215.174 405.727 215.708 408.754 2.627 14.47 16.072 24.264 30.542 23.24 14.692-1.336 25.956-13.624 25.956-28.36v-398.826c0-14.381-10.73-26.49-24.977-28.271z" />
<glyph unicode="&#xe649;" glyph-name="shirt" d="M1011.671 673.116l-194.191 173.466c-32.768 29.123-91.791 51.978-134.676 51.978l-64.594-0.614c-17.736-0.164-32.031-14.582-32.031-32.317 0-36.291-29-65.782-64.635-65.782-35.594 0-64.594 29.491-64.594 65.782 0 17.736-14.295 32.154-32.031 32.317l-64.84 0.614c-42.598 0-101.622-22.856-134.431-52.019l-194.109-173.425c-19.579-17.408-30.72-41.165-31.498-66.929-0.737-25.764 9.052-50.176 27.525-68.649l70.164-70.164c36.454-36.495 100.598-36.495 137.052 0l28.385 28.385v-406.569c0-52.47 43.459-95.15 96.911-95.15h323.052c53.453 0 96.911 42.68 96.911 95.15v406.569l28.385-28.385c36.454-36.495 100.557-36.495 137.052 0l70.164 70.164c18.473 18.473 28.262 42.844 27.484 68.649s-11.919 49.521-31.457 66.929z" />
<glyph unicode="&#xe64a;" glyph-name="single-house" d="M974.111 328.684l-62.996 62.996v-288.317h-129.884v324.69h-162.324v-324.69h-487.055v288.317l-62.996-62.996-68.854 68.895 521.462 521.462 162.324-162.324v60.989h129.884v-190.874l229.253-229.253-68.813-68.895zM424.059 428.052h-162.324v-162.365h162.324v162.365zM976.077-26.522h-909.189v97.403h909.189v-97.403z" />
<glyph unicode="&#xe64b;" glyph-name="snowflake" d="M1024.039 447.98c0 22.929-18.602 41.531-41.531 41.531h-39.722l39.84 39.84c16.203 16.203 16.203 42.514 0 58.718-16.243 16.243-42.514 16.243-58.718 0l-98.518-98.518h-27.019c5.191 14.63 2.242 31.502-9.439 43.183-16.243 16.203-42.514 16.203-58.718 0l-43.222-43.183h-74.803l52.897 52.858h61.077c22.929 0 41.531 18.602 41.531 41.531 0 16.518-9.754 30.676-23.755 37.362l18.956 18.956h139.341c22.929 0 41.531 18.602 41.531 41.531s-18.563 41.452-41.492 41.452h-56.319l28.081 28.081c16.203 16.203 16.203 42.514 0 58.718-16.243 16.243-42.514 16.243-58.718 0l-28.081-28.081v56.358c0 22.929-18.602 41.531-41.531 41.531s-41.531-18.602-41.531-41.531v-139.381l-18.917-18.956c-6.647 13.962-20.844 23.715-37.362 23.715-22.929 0-41.531-18.602-41.531-41.531v-61.077l-52.858-52.858v74.803l43.183 43.183c16.243 16.203 16.243 42.514 0 58.718-11.681 11.681-28.553 14.67-43.183 9.478v26.979l98.558 98.518c16.203 16.203 16.203 42.514 0 58.718-16.243 16.243-42.514 16.243-58.718 0l-39.84-39.84v39.722c0 22.929-18.563 41.492-41.492 41.492s-41.492-18.563-41.492-41.492v-39.683l-39.879 39.801c-16.203 16.243-42.475 16.243-58.718 0-16.203-16.203-16.203-42.514 0-58.718l98.558-98.518v-27.019c-14.63 5.191-31.502 2.242-43.183-9.478-16.243-16.203-16.243-42.514 0-58.718l43.183-43.183v-74.842l-55.021 55.021v61.156c0 22.929-18.602 41.531-41.531 41.531-16.518 0-30.716-9.754-37.362-23.755l-18.956 18.996v139.341c0 22.929-18.602 41.531-41.531 41.531s-41.531-18.602-41.531-41.531v-56.358l-25.878 25.957c-16.243 16.203-42.514 16.203-58.718 0-16.243-16.203-16.243-42.514 0-58.718l25.878-25.918h-56.279c-22.929 0-41.531-18.563-41.531-41.492s18.602-41.531 41.531-41.531h139.302l18.996-18.956c-14.001-6.686-23.755-20.844-23.755-37.362 0-22.929 18.602-41.531 41.531-41.531h61.077l55.021-55.021h-77.792l-43.183 43.183c-16.203 16.203-42.475 16.203-58.718 0-11.681-11.681-14.63-28.592-9.439-43.183h-27.019l-98.558 98.518c-16.243 16.243-42.475 16.243-58.718 0-16.203-16.203-16.203-42.514 0-58.718l39.84-39.84h-36.615c-22.929 0.039-41.531-18.563-41.531-41.492s18.602-41.531 41.531-41.531h36.654l-39.84-39.84c-16.203-16.203-16.203-42.514 0-58.718 8.102-8.102 18.72-12.153 29.339-12.153s21.277 4.051 29.378 12.153l98.518 98.518h27.019c-5.191-14.63-2.242-31.502 9.439-43.183 8.141-8.102 18.76-12.153 29.378-12.153s21.237 4.051 29.339 12.153l43.183 43.183h77.831l-54.981-55.021h-61.117c-22.929 0-41.531-18.563-41.531-41.492 0-16.518 9.754-30.676 23.755-37.362l-18.956-18.956h-139.42c-22.929 0-41.531-18.602-41.531-41.531s18.602-41.531 41.531-41.531h56.358l-25.918-25.918c-16.243-16.203-16.243-42.475 0-58.678 8.102-8.141 18.72-12.192 29.339-12.192s21.237 4.051 29.378 12.192l25.918 25.918v-56.319c0-22.929 18.602-41.531 41.531-41.531s41.531 18.602 41.531 41.531v139.341l18.956 18.956c6.647-14.001 20.844-23.755 37.362-23.755 22.929 0 41.531 18.602 41.531 41.531v61.077l55.060 55.060v-77.871l-43.183-43.183c-16.243-16.243-16.243-42.514 0-58.718 11.681-11.681 28.553-14.67 43.183-9.478v-27.019l-98.597-98.44c-16.203-16.243-16.203-42.514 0-58.718 16.243-16.243 42.514-16.243 58.718 0l39.84 39.84v-36.654c0-22.929 18.602-41.531 41.492-41.531 22.929 0 41.531 18.602 41.531 41.531v36.654l39.84-39.84c8.102-8.141 18.72-12.192 29.339-12.192 10.658 0 21.237 4.051 29.378 12.192 16.203 16.203 16.203 42.475 0 58.718l-98.558 98.518v27.019c4.483-1.612 9.124-2.674 13.844-2.674 10.619 0 21.237 4.051 29.339 12.153 16.243 16.203 16.243 42.475 0 58.718l-43.183 43.183v77.831l52.858-52.858v-61.077c0-22.929 18.602-41.531 41.531-41.531 16.518 0 30.676 9.754 37.362 23.755l18.956-18.956v-139.341c0-22.929 18.602-41.531 41.531-41.531s41.531 18.602 41.531 41.531v56.319l28.081-28.081c8.102-8.102 18.72-12.153 29.339-12.153 10.658 0 21.277 4.051 29.378 12.153 16.203 16.243 16.203 42.514 0 58.718l-28.081 28.081h56.358c22.929 0 41.531 18.602 41.531 41.531s-18.602 41.531-41.531 41.531h-139.381l-18.956 18.956c14.001 6.686 23.755 20.844 23.755 37.362 0 22.929-18.602 41.531-41.531 41.531h-61.077l-52.897 52.858h74.803l43.222-43.183c8.102-8.102 18.72-12.153 29.339-12.153s21.237 4.051 29.378 12.153c11.681 11.681 14.63 28.592 9.439 43.183h27.058l98.518-98.518c8.102-8.102 18.72-12.153 29.339-12.153 10.658 0 21.277 4.051 29.378 12.153 16.203 16.203 16.203 42.514 0 58.718l-39.84 39.84h39.722c22.732-0.118 41.374 18.445 41.374 41.374z" />
<glyph unicode="&#xe64c;" glyph-name="speaker" d="M935.351 78.238c-9.655-16.628-27.112-25.941-45.056-25.941-8.826 0-17.798 2.243-25.99 6.973-24.82 14.385-33.304 46.178-18.968 70.997 56.076 96.939 85.675 207.677 85.675 320.317 0 112.689-29.647 223.525-85.772 320.561-14.385 24.82-5.949 56.613 18.92 70.997 24.869 14.482 56.661 5.9 70.997-18.968 65.292-112.786 99.816-241.664 99.816-372.59 0-130.877-34.475-259.657-99.621-372.346zM824.466 286.013c-9.606-16.579-27.063-25.893-44.958-25.893-8.875 0-17.798 2.243-26.039 7.022-24.82 14.385-33.304 46.129-18.92 70.997 19.651 33.987 30.086 72.899 30.086 112.542 0 39.595-10.435 78.507-30.135 112.64-14.385 24.82-5.949 56.613 18.968 70.997 24.771 14.385 56.613 5.9 70.997-18.968 28.867-49.835 44.13-106.789 44.13-164.62-0.049-57.978-15.262-114.883-44.13-164.718zM623.567-34.353c-6.729 0-13.41 1.95-19.212 5.803l-305.883 203.971h-263.851c-19.115 0-34.621 15.506-34.621 34.621v484.986c0 19.163 15.506 34.621 34.621 34.621h269.458l300.227 200.119c10.581 7.070 24.332 7.753 35.547 1.707 11.264-6.046 18.286-17.749 18.286-30.525v-900.681c0-12.776-7.070-24.527-18.286-30.525-5.071-2.731-10.679-4.096-16.286-4.096z" />
<glyph unicode="&#xe64d;" glyph-name="star" d="M1019.781 569.938c-5.571 17.121-20.48 29.573-38.38 31.99l-298.189 39.731-129.925 271.237c-7.782 16.302-24.207 26.624-42.23 26.624s-34.488-10.322-42.271-26.624l-129.966-271.278-298.148-39.731c-17.859-2.417-32.809-14.828-38.38-31.949-5.612-17.162-0.819-36.004 12.247-48.456l217.866-207.38-54.395-295.772c-3.277-17.777 3.973-35.799 18.555-46.408 14.664-10.568 34.038-11.919 49.848-3.318l264.561 143.155 264.561-143.155c7.004-3.768 14.664-5.652 22.323-5.652 9.708 0 19.374 3.031 27.525 8.929 14.582 10.609 21.832 28.672 18.555 46.408l-54.395 295.772 217.907 207.38c13.148 12.452 17.94 31.293 12.329 48.497z" />
<glyph unicode="&#xe64e;" glyph-name="steak" d="M524.727 113.774c-369.408 0-508.891 270.263-514.377 281.563l-10.35 20.663v22.638c0 102.034 55.552 211.163 210.834 211.163 16.494 0 30.683-3.547 45.861-7.095 14.555-3.255 31.013-7.095 46.811-7.095 17.445 0 36.498 3.84 58.112 32.293 63.342 84.59 158.245 127.525 282.222 127.525 20.663 0 40.046-0.951 56.503-1.938 9.070-0.658 17.115-1.28 23.918-1.28 111.397 0 296.411-157.257 296.411-324.827 0-170.825-130.45-353.609-495.945-353.609zM724.261 743.753c-7.424 0-16.494 0.658-26.807 1.28-14.848 0.987-33.573 1.938-53.614 1.938-109.129 0-188.891-35.182-243.456-108.178-26.807-35.182-57.49-51.675-96.878-51.675-21.321 0-41.655 4.535-57.819 8.375-13.531 3.291-23.845 5.888-34.853 5.888-146.578 0-162.414-113.664-162.414-162.743v-11.301l5.193-10.313c5.157-10.35 131.401-254.793 471.113-254.793 329.984 0 447.525 157.586 447.525 305.152 0 137.216-159.195 276.37-247.991 276.37zM524.727 210.651c-313.893 0-427.849 227.95-427.849 227.95 0 114.286 85.541 114.286 113.957 114.286 14.226 0 50.066-14.19 92.672-14.19 42.935 0 92.672 14.19 135.607 71.022 56.832 76.178 139.483 88.795 204.727 88.795 32.951 0 61.367-3.218 80.421-3.218 56.832 0 199.534-113.957 199.534-227.95 0-113.957-85.541-256.695-399.067-256.695zM638.683 581.339c-31.634 0-57.125-25.527-57.125-57.161 0-31.305 25.527-56.832 57.125-56.832 31.342 0 57.161 25.49 57.161 56.832 0 31.671-25.819 57.161-57.161 57.161z" />
<glyph unicode="&#xe64f;" glyph-name="theatre" d="M1039.929 597.959c0.569-3.755 0.569-7.813 0.569-11.833 0-11.264-0.834-22.225-2.882-32.958v-0.303c-11.264-146.242-65.308-500.015-326.315-515.034-5.765-0.607-11.567-0.872-17.636-0.872s-11.833 0.265-17.636 0.872c-28.558 1.631-54.537 7.547-78.355 16.612 53.438 53.513 96.142 127.090 127.014 218.34 11.795-2.427 23.476-5.765 34.854-10.088 24.311-10.126 46.27-23.704 69.404-44.791 6.637-5.765 16.194-8.078 24.841-4.892 4.324 1.745 8.078 4.361 10.695 7.813 5.499 6.334 7.244 15.284 4.361 23.704l-0.303 0.872c-11.833 33.527-39.291 65.915-72.249 86.13-2.313 1.441-4.892 3.148-7.509 4.589-12.819 7.471-26.548 13.047-40.657 17.446 13.198 55.561 22.566 116.471 28.103 182.12 15.891-7.358 33.413-11.188 50.972-11.378 24.273 0.265 48.849 7.206 68.494 21.352 19.949 13.615 34.968 34.133 39.595 56.358 0.872 4.361 0.872 8.685-0.872 13.009-0.303 1.138-0.569 2.313-1.138 3.451-6.068 12.44-21.39 17.939-34.095 11.567l-4.324-2.010c-13.009-6.675-23.704-10.164-33.83-13.009-0.569-0.265-1.441-0.265-2.010-0.569-10.999-2.313-21.39-3.793-31.782-3.451-10.392-0.303-20.821 1.138-31.516 3.451-0.569 0.303-1.441 0.303-2.010 0.569-4.892 1.365-9.747 2.769-14.905 4.665-0.607 4.703-1.252 9.254-2.124 12.895-13.919 83.551-64.815 156.824-138.278 210.148 18.015 2.124 36.409 3.489 55.296 3.489 178.631 0 325.442-101.148 344.823-231.234h2.010c0 0 0-5.499-0.569-15.625 0.265-0.531 0.265-0.834-0.038-1.403zM693.703 614.988c0 0 0-5.499-0.569-15.625v-0.265c0.303-0.303 0.303-0.607 0-0.872 0.303-0.872 0.303-1.707 0-2.579 0.569-3.186 0.569-6.334 0.569-9.519 0-11.264-0.872-22.225-2.882-32.958 0-0.303 0-0.303 0-0.607-11.264-146.242-65.612-500.015-326.315-514.769-5.765-0.607-11.567-0.872-17.636-0.872s-11.833 0.265-17.636 0.872c-261.006 15.019-315.051 368.792-326.315 515.034v0.303c-2.086 10.733-2.92 21.694-2.92 32.958 0 3.186 0 6.675 0.265 9.823-0.265 12.136-0.265 19.077-0.265 19.077h2.010c19.38 130.086 166.191 231.234 344.823 231.234s325.48-101.148 344.823-231.234h2.048zM299.425 580.589c-2.579 12.44-8.382 23.969-16.46 34.399-6.372 8.382-14.184 15.891-23.135 21.959-19.646 14.184-44.222 21.125-68.494 21.39-24.273-0.265-48.545-7.206-68.494-21.39-8.685-5.765-16.46-13.577-23.135-21.959-8.078-10.43-13.881-22.225-15.891-33.792-0.872-5.803 0-11.833 2.882-17.332 7.206-12.743 23.097-17.37 35.84-10.126l0.834 0.265c15.019 8.382 25.145 10.999 36.409 14.184 10.733 2.276 21.163 3.755 31.554 3.451 10.392 0.265 20.783-1.176 31.782-3.489 10.695-2.579 21.959-6.599 35.84-13.54l4.627-2.048c4.93-2.313 10.43-3.148 16.194-2.048 13.881 2.92 22.566 16.498 19.646 30.075zM337.313 274.83c-25.714-0.303-51.162 5.196-75.435 14.45-12.136 4.892-23.704 10.999-35.271 18.508-11.567 7.206-22.528 15.891-33.83 25.714l-1.176 0.872c-6.334 5.803-15.891 7.813-24.538 4.665-12.705-4.665-19.38-18.811-14.45-31.516 7.206-19.684 18.508-38.153 33.261-54.044 11.264-12.705 24.538-23.704 39.291-32.958 33.223-21.352 72.818-31.782 112.147-32.047 3.148 0 6.372 0 9.519 0.265 36.143 1.707 71.983 12.136 102.628 31.782 19.646 12.136 37.585 28.634 51.162 47.142 8.951 12.402 16.498 25.714 21.125 38.988l0.303 0.872c2.882 8.382 1.441 17.939-4.93 24.841-9.254 10.126-24.841 10.695-34.968 1.745-7.813-7.206-15.625-13.577-23.4-19.077-15.019-10.695-30.075-18.811-45.966-25.714-21.39-8.078-43.653-13.312-65.915-14.184-3.186-0.303-6.409-0.303-9.557-0.303zM588.459 580.589c-2.579 12.44-8.382 23.969-16.46 34.399-6.372 8.382-14.184 15.891-23.135 21.959-19.646 14.184-44.222 21.125-68.494 21.39-24.273-0.265-48.545-7.206-68.494-21.39-8.685-5.803-16.46-13.577-23.097-21.959-8.116-10.43-13.881-22.225-15.891-33.83-0.872-5.803 0-11.833 2.882-17.332 7.206-12.743 23.097-17.37 35.84-10.126l0.834 0.265c15.019 8.382 25.145 10.999 36.409 14.184 10.695 2.313 21.125 3.755 31.516 3.489 10.392 0.265 20.783-1.176 31.782-3.489 10.695-2.579 21.959-6.637 35.84-13.577l4.627-2.048c4.892-2.313 10.392-3.148 16.194-2.048 13.881 2.958 22.566 16.536 19.646 30.113z" />
<glyph unicode="&#xe650;" glyph-name="train" d="M753.74 77.312h-485.49c-85.182 0-154.472 69.291-154.472 154.472v441.344c0 85.182 69.291 154.472 154.472 154.472h154.472v57.951c0 2.844 0.493 5.575 1.176 8.268h-78.431c-1.1 0-11.036-0.228-11.036-8.268 0-18.28-14.829-33.109-33.109-33.109s-33.071 14.829-33.071 33.109c0 41.756 33.906 74.449 77.217 74.449h308.945c44.032 0 77.255-30.834 77.255-71.718 0-18.28-14.829-33.109-33.109-33.109-18.242 0-33.109 14.829-33.109 33.109 0 5.12-8.457 5.499-11.036 5.499h-56.32c0.683-2.655 1.176-5.423 1.176-8.268v-57.913h154.472c85.182 0 154.472-69.329 154.472-154.472v-441.344c0-85.182-69.329-154.472-154.472-154.472zM731.667 187.639c36.561 0 66.219 29.62 66.219 66.219s-29.658 66.219-66.219 66.219-66.219-29.62-66.219-66.219 29.658-66.219 66.219-66.219zM290.323 187.639c36.561 0 66.219 29.62 66.219 66.219s-29.658 66.219-66.219 66.219c-36.523 0-66.219-29.62-66.219-66.219s29.658-66.219 66.219-66.219zM487.765 893.781c0.683-2.655 1.176-5.423 1.176-8.268v-57.913h44.146v57.951c0 2.844 0.493 5.575 1.176 8.268h-46.497zM819.921 673.128c0 36.409-29.772 66.219-66.219 66.219h-88.254c0-24.386-19.759-44.146-44.146-44.146h-220.653c-24.386 0-44.146 19.759-44.146 44.146h-88.254c-36.409 0-66.181-29.772-66.181-66.219v-220.653h617.889v220.653zM208.517 48.792c4.134 4.134 9.747 6.447 15.588 6.447h110.327c8.913 0 16.991-5.348 20.404-13.615s1.555-17.749-4.779-24.045l-66.219-66.219c-4.134-4.134-9.747-6.447-15.625-6.447h-110.289c-8.913 0-16.991 5.385-20.366 13.615-3.451 8.23-1.555 17.711 4.779 24.045l66.181 66.219zM687.521 55.239h110.327c5.841 0 11.454-2.313 15.588-6.447l63.829-63.791c5.613-4.020 9.292-10.581 9.292-18.015 0-12.212-9.861-22.073-22.073-22.073-0.114 0-0.303 0-0.417 0h-110.364c-5.841 0-11.454 2.351-15.588 6.447l-66.219 66.219c-6.334 6.334-8.192 15.815-4.779 24.045 3.451 8.268 11.492 13.615 20.404 13.615z" />
<glyph unicode="&#xe651;" glyph-name="trash" d="M133.565 781.601v29.741c0 49.152 39.981 89.177 89.177 89.177h213.571c12.377 34.549 45.056 59.481 83.79 59.481s71.413-24.932 83.745-59.437h213.571c49.197 0 89.222-40.025 89.222-89.177v-29.741h-773.075zM847.16 38.266c0-49.197-39.981-89.177-89.177-89.177h-475.759c-49.197 0-89.222 39.981-89.222 89.177v683.898h654.113v-683.898zM371.445 603.203c0 16.429-13.312 29.696-29.741 29.696s-29.741-13.267-29.741-29.696v-475.759c0-16.429 13.312-29.696 29.741-29.696s29.741 13.267 29.741 29.696v475.759zM549.843 603.203c0 16.429-13.312 29.696-29.741 29.696s-29.741-13.267-29.741-29.696v-475.759c0-16.429 13.267-29.696 29.696-29.696s29.741 13.267 29.741 29.696v475.759zM728.198 603.203c0 16.429-13.312 29.696-29.696 29.696-16.429 0-29.741-13.267-29.741-29.696v-475.759c0-16.429 13.312-29.696 29.741-29.696s29.696 13.267 29.696 29.696v475.759z" />
<glyph unicode="&#xe652;" glyph-name="tree" d="M923.003 200.078l-172.449 172.753h61.516c25.031 0 47.597 15.132 57.154 38.002 9.595 23.173 4.020 49.759-13.577 67.356l-147.456 147.418h11.15c25.031 0 47.597 15.132 57.154 38.305 9.595 22.907 3.982 49.455-13.577 67.356l-210.792 210.489c-12.023 12.060-27.762 18.242-43.539 18.242s-31.516-6.182-43.577-18.204l-210.754-210.489c-17.598-17.939-23.211-44.487-13.615-67.394 9.557-23.173 32.161-38.305 57.154-38.305h11.15l-147.456-147.418c-17.598-17.636-23.173-44.184-13.577-67.356 9.557-22.869 32.161-38.002 57.154-38.002h61.554l-172.449-172.753c-17.939-17.636-23.173-44.184-13.577-67.356 9.557-22.869 32.123-38.040 57.154-38.040h278.149v-61.781c0-51.314 41.377-92.729 92.691-92.729s92.729 41.415 92.729 92.729v61.781h278.111c25.031 0 47.597 15.17 57.154 38.040 9.633 23.173 4.361 49.721-13.577 67.356z" />
<glyph unicode="&#xe653;" glyph-name="trousers" d="M800.973-46.592l-26.214 857.539h-212.255c-16.384 0-29.819 13.435-29.819 29.819s13.435 29.819 29.819 29.819h210.493l-1.802 60.539c-0.328 16.097-13.722 28.877-29.819 28.877h-476.938c-16.097 0-29.204-12.78-29.819-28.918l-1.761-60.498h210.412c16.712 0 29.819-13.435 29.819-29.819s-13.107-29.819-29.819-29.819h-212.214l-26.255-863.519c-0.287-8.069 2.99-15.811 8.356-21.75 5.693-5.652 13.435-8.929 21.463-8.929h178.872c14.909 0 27.443 11.059 29.491 25.641l59.924 419.389 59.924-419.389c2.048-14.582 14.582-25.641 29.491-25.641h178.831c0.328 0 0.614 0 0.614 0 16.384 0 29.819 13.435 29.819 29.819 0 2.335-0.287 4.751-0.614 6.84z" />
<glyph unicode="&#xe654;" glyph-name="truck" d="M943.559 213.921h-48.393c0 66.788-54.196 120.984-120.946 120.984s-120.946-54.196-120.946-120.984h-266.126c0 66.788-54.196 120.984-120.984 120.984-66.75 0-120.946-54.196-120.946-120.984h-72.628c-39.936 0-72.59 32.654-72.59 72.59v411.269c0 39.936 32.654 72.59 72.59 72.59h580.646c39.936 0 72.59-32.654 72.59-72.59h120.946c31.934 0 64.133-19.835 78.393-48.393l75.017-150.225c9.481-18.887 15.967-46.459 15.967-67.508v-145.18c0-39.898-32.654-72.552-72.59-72.552zM934.116 478.113l-53.741 124.852c-5.082 12.326-20.328 22.263-33.64 22.263h-120.946v-169.339h193.574c13.312-0.038 19.835 9.899 14.753 22.225zM266.126 286.511c40.126 0 72.59-32.465 72.59-72.59 0-40.088-32.465-72.59-72.59-72.59-40.088 0-72.59 32.465-72.59 72.59 0.038 40.088 32.503 72.59 72.59 72.59zM774.22 286.511c40.088 0 72.59-32.465 72.59-72.59 0-40.088-32.465-72.59-72.59-72.59s-72.59 32.503-72.59 72.59c0 40.088 32.465 72.59 72.59 72.59z" />
<glyph unicode="&#xe655;" glyph-name="umbrella" d="M1004.267 450.455c-11.958-4.956-25.689-2.228-34.873 6.911l-50.741 50.741c-12.003 11.958-33.236 11.958-45.239 0l-37.51-37.51c-18.050-18.050-42.193-28.053-67.882-28.053-25.643 0-49.786 10.003-67.882 28.053l-37.51 37.51c-12.003 11.958-33.236 11.958-45.239 0l-37.51-37.51c-36.101-36.101-99.617-36.101-135.718 0l-37.555 37.555c-12.003 11.958-33.236 11.958-45.239 0l-37.51-37.51c-36.101-36.101-99.617-36.101-135.763 0l-37.465 37.51c-12.003 11.958-33.236 11.958-45.239 0l-50.786-50.741c-9.139-9.184-22.87-11.912-34.827-6.956-12.003 4.91-19.778 16.641-19.778 29.553 0 440.845 504.816 479.628 509.863 479.946 1.455 0.045 2.819 0.045 4.274 0 5.092-0.318 509.863-39.101 509.863-479.946 0-12.913-7.729-24.643-19.733-29.553zM495.996 384.028c26.507 0 48.013-21.506 48.013-48.013v-256.023c0-26.462 21.551-48.013 48.013-48.013s48.013 21.551 48.013 48.013c0 26.507 21.506 48.013 48.013 48.013s48.013-21.506 48.013-48.013c0-79.385-64.608-143.993-143.993-143.993-79.43 0-143.993 64.608-143.993 143.993v256.023c-0.045 26.507 21.46 48.013 47.922 48.013z" />
<glyph unicode="&#xe656;" glyph-name="university" d="M997.41 537.634l-477.286-95.437c-2.321-0.444-4.676-0.717-7.031-0.717s-4.71 0.239-7.031 0.717l-374.784 74.923v-180.156l22.050-88.132c1.468-3.106 2.287-6.554 2.287-10.24 0-13.175-10.65-23.859-23.859-23.859-0.137 0.034-0.341 0.034-0.478 0h-47.753c-7.339 0-14.268 3.379-18.807 9.182-4.506 5.769-6.11 13.346-4.335 20.48l23.142 92.57v189.747l-54.75 10.923c-16.725 3.345-28.774 18.057-28.774 35.123s12.049 31.778 28.774 35.089l477.286 95.437c4.608 0.922 9.421 0.922 14.029 0l477.286-95.437c16.725-3.345 28.774-18.057 28.774-35.089 0.034-17.067-12.015-31.778-28.74-35.123zM513.092 393.762c5.53 0 11.059 0.546 16.384 1.638l281.941 56.354v-141.517c0-104.38-267.776-107.383-298.325-107.383s-298.325 3.004-298.325 107.383v141.551l281.839-56.354c5.427-1.126 10.991-1.673 16.486-1.673z" />
<glyph unicode="&#xe657;" glyph-name="villa" d="M979.395 584.397v-442.286h-410.706v189.563c0 26.173-21.217 47.391-47.391 47.391s-47.391-21.217-47.391-47.391v-189.563h-410.747v442.286h-63.16l537.068 252.723 505.487-252.723h-63.16zM252.723 521.195c0 26.173-21.217 47.391-47.391 47.391s-47.391-21.217-47.391-47.391v-94.781h94.781v94.781zM252.723 331.633h-94.781v-94.781h94.781v94.781zM410.706 521.195c0 26.173-21.217 47.391-47.391 47.391s-47.391-21.217-47.391-47.391v-94.781h94.781v94.781zM410.706 331.633h-94.781v-94.781h94.781v94.781zM568.689 521.195c0 26.173-21.217 47.391-47.391 47.391s-47.391-21.217-47.391-47.391v-94.781h94.781v94.781zM726.63 521.195c0 26.173-21.217 47.391-47.391 47.391s-47.391-21.217-47.391-47.391v-94.781h94.781v94.781zM726.63 331.633h-94.781v-94.781h94.781v94.781zM789.832 236.851h94.781v94.781h-94.781v-94.781zM916.193 521.195c0 26.173-21.217 47.391-47.391 47.391s-47.391-21.217-47.391-47.391v-94.781h94.781v94.781zM1010.975 47.288h-979.395v63.201h979.354v-63.201z" />
<glyph unicode="&#xe658;" glyph-name="warehouse" d="M1018.122 494.535c-5.916-10.847-17.105-16.991-28.634-16.991-5.272 0-10.619 1.289-15.625 3.982l-49.607 27.079v-302.876c0-11.947-9.785-21.732-21.732-21.732h-108.734v282.662h-391.471v-282.7h-282.7c-11.947 0-21.732 9.785-21.732 21.732v302.914l-49.645-27.079c-15.815-8.647-35.612-2.807-44.26 13.009s-2.807 35.612 13.009 44.26l494.061 269.502 494.061-269.502c15.777-8.609 21.656-28.444 13.009-44.26zM315.316 423.159h-130.465v-86.964h130.465v86.964zM750.289 423.159v-130.465h-304.469v130.465h304.469zM119.618 140.459h782.905c11.947 0 21.732-9.785 21.732-21.732v-21.732c0-11.947-9.785-21.769-21.732-21.769h-782.905c-11.947 0-21.732 9.785-21.732 21.769v21.732c0 11.947 9.785 21.732 21.732 21.732z" />
<glyph unicode="&#xe659;" glyph-name="warning" d="M1020.501 152.576l-414.123 689.707c-20.48 34.176-52.437 53.717-87.595 53.717s-67.115-19.541-87.595-53.717l-414.123-689.707c-20.779-34.56-22.699-72.235-5.077-102.997 17.579-31.019 50.517-48.597 91.093-48.597h831.36c40.619 0 73.557 17.579 91.136 48.597 17.621 30.72 15.701 68.437-5.077 102.997zM518.784 320.768l-63.957 287.787c0 35.157 28.8 63.957 63.957 63.957s63.957-28.8 63.957-63.957l-63.957-287.787zM582.741 192.853c0-35.157-28.8-63.957-63.957-63.957s-63.957 28.8-63.957 63.957c0 35.157 28.8 63.957 63.957 63.957s63.957-28.8 63.957-63.957z" />
<glyph unicode="&#xe65a;" glyph-name="wi-fi" d="M990.455 528.578c-14.83-14.866-34.216-22.457-54.025-22.457-19.385 0-38.771 7.592-53.601 22.457-207.625 207.625-545.333 207.625-752.958 0-29.625-29.661-77.965-29.661-107.626 0-29.625 29.625-29.625 77.965 0 107.626 266.982 266.946 701.228 266.946 968.21 0 29.625-29.661 29.625-77.965 0-107.626zM345.088 313.362c-29.625-29.661-77.965-29.661-107.626 0-29.625 29.625-29.625 77.965 0 107.626 148.339 148.268 389.402 148.268 537.741 0 29.625-29.661 29.625-77.965 0-107.626-14.83-14.866-34.251-22.069-53.636-22.069s-39.159 7.203-53.99 22.069c-88.982 88.982-233.507 88.982-322.489 0zM559.951 98.463c-29.661-30.049-77.577-30.049-107.238 0-30.049 29.661-30.049 77.577 0 107.273 29.661 30.049 77.577 30.049 107.238 0 30.049-29.696 30.049-77.612 0-107.273z" />
<glyph unicode="&#xe65b;" glyph-name="winery" d="M721.852 158.959v-147.319l75.981-19.012c11.469-2.833 19.046-13.824 17.579-25.6-1.434-11.742-11.401-20.582-23.245-20.582h-187.46c-11.844 0-21.811 8.841-23.279 20.582-1.434 11.742 6.11 22.733 17.579 25.6l75.981 19.012v147.319c-75.742 9.489-117.18 66.219-117.18 162.475 0 48.606 22.903 163.738 23.893 168.619 2.185 10.923 11.81 18.842 22.972 18.842h187.46c11.162 0 20.787-7.885 22.972-18.842 0.99-4.881 23.893-120.013 23.893-168.619 0.034-96.222-41.438-152.951-117.146-162.475zM404.992-47.65h-164.011c-38.775 0-70.315 31.539-70.315 70.315v515.516c0 33.417 20.139 73.694 46.831 93.764l18.807 14.063c14.677 10.991 28.092 37.82 28.092 56.218v210.91c-12.937 0-23.45 10.479-23.45 23.45s10.513 23.415 23.45 23.415h117.214c12.937 0 23.45-10.479 23.45-23.45s-10.547-23.415-23.484-23.415v-210.91c0-18.5 13.38-45.227 28.126-56.252l18.739-14.063c26.692-20.173 46.865-60.45 46.865-93.764v-140.595h-187.46v-281.19h187.494v-93.764c-0.034-38.639-31.676-70.246-70.349-70.246z" />
</font>
</defs>
</svg>
