<svg xmlns="http://www.w3.org/2000/svg" xmlns:xlink="http://www.w3.org/1999/xlink" version="1.1" x="0px" y="0px" viewBox="0 0 256 256" enable-background="new 0 0 256 256" xml:space="preserve"><path d="M188.156,107.66l35.227-20.34L128,32.245L32.617,87.319l35.228,20.34L32.617,128l35.228,20.34l-35.228,20.34L128,223.755  l95.382-55.074l-35.227-20.34L223.383,128L188.156,107.66z M128,42.638l77.383,44.682L128,132.001L50.616,87.319L128,42.638z   M76.844,112.856L128,142.394l51.156-29.538L205.384,128L128,172.682L50.616,128L76.844,112.856z M205.384,168.681L128,213.362  l-77.384-44.682l26.228-15.144L128,183.074l51.156-29.538L205.384,168.681z"></path></svg>
